<svg xmlns="http://www.w3.org/2000/svg" width="151.9509" height="197.046" viewBox="0 0 151.9509 197.046"><g id="a0783b61-790c-47e9-9f69-f62ddcef98f3" data-name="Layer 2"><g id="b28d1268-f4d5-4160-80b7-887d6e381176" data-name="IW_DeHoop_iconen_verzameld_def&#xA0;Image"><rect width="151.9509" height="197.046" style="fill:none"></rect><g id="b2d8a944-1ce0-45ef-b37e-32cd5153f7ef" data-name="Cuupes"><path d="M128.0151,86.7944c2.3989.0009,4.798.0237,7.1964-.01.7363-.0105.9732.2358.9425.9693-.1183,2.8314-.63,5.6146-.9883,8.4158a108.275,108.275,0,0,1-2.3625,12.0432,67.1907,67.1907,0,0,1-4.1757,11.3026,38.9543,38.9543,0,0,1-8.8571,12.2124,38.4473,38.4473,0,0,1-8.4882,5.9333c-3.9584,2.1471-7.913,4.3044-11.9765,6.238a48.2934,48.2934,0,0,0-9.34,5.2417,20.8339,20.8339,0,0,0-4.3187,4.7492c-2.5894,3.7861-2.855,8.0517-2.73,12.3662a15.6959,15.6959,0,0,0,1.1129,5.6879c1.3613,3.2312,4.0383,4.5785,7.2031,5.022a106.2333,106.2333,0,0,1,12.7237,2.6492c2.4226.648,4.8912,1.1918,6.9156,2.81a6.7312,6.7312,0,0,1,2.1307,2.6866c.4.9645.3061,1.304-.85,1.29-4.3176-.0512-8.6361-.0123-12.9543-.0124q-29.9862-.0006-59.9723-.0038c-1.675,0-1.7364-.0737-.9982-1.5383a8.7356,8.7356,0,0,1,5.5412-4.243,101.1826,101.1826,0,0,1,13.81-3.3116,40.7013,40.7013,0,0,0,4.79-.9661,7.5568,7.5568,0,0,0,5.0859-5.4479c1.0213-3.3141.8052-6.7245.4222-10.1719a16.4591,16.4591,0,0,0-5.7-10.6758,26.825,26.825,0,0,0-6.8764-4.4793c-2.167-.9931-4.292-2.0854-6.4415-3.1134-3.4917-1.67-6.7739-3.7154-10.2255-5.4463-3.9553-1.9835-7.0707-4.9819-10.0644-8.1424a35.8259,35.8259,0,0,1-5.8336-8.8352,59.495,59.495,0,0,1-4.1889-10.7771c-.7831-2.8294-1.33-5.7285-1.8874-8.6149-.694-3.5955-1.0576-7.2428-1.57-10.8668-.4153-2.9351-.4572-2.97,2.401-2.9591,4.118.0156,8.236.0082,12.3539.0107a48.2354,48.2354,0,0,0-2.8928,7.17,34.74,34.74,0,0,0-.5836,14.2322,34.9066,34.9066,0,0,0,4.19,12.6087,36.0761,36.0761,0,0,0,9.7674,11.3106,34.304,34.304,0,0,0,8.7762,4.1969,44.514,44.514,0,0,0,12.1495,2.29,27.335,27.335,0,0,0,12.005-2.1435A27.3228,27.3228,0,0,0,87.9322,123.28a37.4584,37.4584,0,0,0,3.4006-8.4071c1.4276.1,2.8664.121,4.28.3187a23.1385,23.1385,0,0,0,7.5933-.2674,32.406,32.406,0,0,0,10.386-4.0341,23.9672,23.9672,0,0,0,6.7121-5.8659,36.2408,36.2408,0,0,0,5.8875-10.8611A39.2579,39.2579,0,0,0,128.0151,86.7944Z" style="fill:#e3aea5"></path><path d="M91.3328,114.8729a37.4584,37.4584,0,0,1-3.4006,8.4071,27.3228,27.3228,0,0,1-14.6766,13.1916,27.335,27.335,0,0,1-12.005,2.1435,44.514,44.514,0,0,1-12.1495-2.29,34.304,34.304,0,0,1-8.7762-4.1969,36.0761,36.0761,0,0,1-9.7674-11.3106,34.9066,34.9066,0,0,1-4.19-12.6087,34.74,34.74,0,0,1,.5836-14.2322,48.2354,48.2354,0,0,1,2.8928-7.17q.1257-.0079.2512-.0157l.2332-.2233-.0011.0035c1.15.0364,2.28.2529,3.4422.25,9.4976-.0266,18.9954-.0089,28.4932-.0047a59.6345,59.6345,0,0,0,2.6779,8.2482,37.0406,37.0406,0,0,0,9.2245,12.37c3.6351,3.1656,8.01,4.9068,12.5779,6.2718C88.2628,114.16,89.9,114.114,91.3328,114.8729Z" style="fill:#f6e6e3"></path><path d="M91.3328,114.8729c-1.4328-.7589-3.07-.7128-4.59-1.1669-4.5676-1.365-8.9428-3.1062-12.5779-6.2718a37.0406,37.0406,0,0,1-9.2245-12.37,59.6592,59.6592,0,0,1-2.6781-8.2483,69.5717,69.5717,0,0,1-.7464-7.9879c.1391-1.5656.1979-3.135.405-4.6989.2605-1.9669.9452-3.8291,1.2671-5.7752.0314-.0241.0868-.0459.0894-.0728a.9048.9048,0,0,0-.0208-.1975c1.0707-1.9448,1.8184-4.0693,3.2469-5.8155a4.4638,4.4638,0,0,1,1.01-1.1647,2.5239,2.5239,0,0,1-.2839,1.1509,9.7044,9.7044,0,0,0-.4015,5.877,4.6268,4.6268,0,0,0,4.7173,3.5759,7.2705,7.2705,0,0,0,4.9423-2.396c.8672-.88,1.5786-1.93,2.5145-2.7209,1.6638-1.4061,4.03-1.7653,5.7337.2812a5.4234,5.4234,0,0,1,1.27,3.3985,63.1994,63.1994,0,0,1-.6136,7.1472,11.3331,11.3331,0,0,0,.1379,4.4844,4.0555,4.0555,0,0,0,5.2985,2.761c1.9536-.6311,3.1845-2.5144,3.3453-5.0513a13.0145,13.0145,0,0,1,1.0456-4.9978,3.3679,3.3679,0,0,1,3.789-1.8c2.0252.3771,2.756,1.9083,3.2815,3.5814.9545,3.0388.4091,6.0822-.1368,9.11-.5282,2.93-1.3518,5.8082-.7782,8.8607a5.7352,5.7352,0,0,0,4.6462,4.84,5.0174,5.0174,0,0,0,5.6369-2.8971,12.705,12.705,0,0,0,1.1115-6.4078c-.2036-3.4278-.4214-6.8573.84-10.1711a5.1,5.1,0,0,1,5.5575-3.1529c1.7472.2686,2.9177,1.3935,4.2049,2.3685,1.5685,1.188,3.116,2.3777,5.2371,2.2722a34.89,34.89,0,0,1-.5934,5.5769,39.2508,39.2508,0,0,1-1.8229,7.3686,36.2408,36.2408,0,0,1-5.8875,10.8611,23.9672,23.9672,0,0,1-6.7121,5.8659,32.406,32.406,0,0,1-10.386,4.0341,23.1385,23.1385,0,0,1-7.5933.2674C94.1992,114.9939,92.76,114.9733,91.3328,114.8729Z" style="fill:#f7e18e"></path><path d="M26.52,34.9637c.2734-2,.3029-4.0851,1.8839-5.6447,1.9975-1.97,4.7632-3.2028,8.3561-1.1418.8379.4807,1.0015.2629,1.2921-.5553,1.1081-3.12,3.6648-4.4634,6.7042-4.7788,2.3919-.2481,4.2108.9814,5.5975,2.995,1.4806,2.15,1.7718,4.6672,2.45,7.0555.7035,2.4781,1.2018,5.02,1.6889,7.5526.4947,2.5728.8763,5.1677,1.2864,7.7562a26.1065,26.1065,0,0,0,.5884,2.9125c1.0286,3.678.8864,7.5782,2.2011,11.1912a.454.454,0,0,1-.17.53,27.6289,27.6289,0,0,0-8.8919-4.6087c-1.8722-4.5143-3.7367-9.0318-5.6321-13.5363a3.3734,3.3734,0,0,0-.7749-.8985c-.2543-.261-.5488-.5166-.9426-.3079a1.1368,1.1368,0,0,0-.7341,1.01,3.41,3.41,0,0,0,.2665,1.1512c.8645,2.0889,1.7574,4.1661,2.6349,6.25q1.1776,2.7956,2.3436,5.596a48.6344,48.6344,0,0,0-5.82-.3545c-1.5928.0806-3.1787.1126-4.77.1029a74.0276,74.0276,0,0,0-4.4335-6.43,1.2417,1.2417,0,0,0-1.6143-.3836c-.6841.3386-.5116,1.0508-.3673,1.5944a3.8123,3.8123,0,0,0,.76,1.1885,36.2868,36.2868,0,0,1,2.8184,4.08c-1.1378.0736-2.276.1415-3.4131.2242-.3467.0252-.8228-.1752-1.01.1491-.2365.41.2383.7139.45,1.0171,1.82,2.6057,3.627,5.2228,5.5146,7.78A29.5773,29.5773,0,0,0,40.35,72.142c.9374.7364,1.8157,1.5481,2.7208,2.3256a26.9588,26.9588,0,0,0-2.7759,1.6355.8.8,0,0,1-1.2218-.0367c-.9937-.9124-2.0534-1.7615-3.0323-2.6752-2.645-2.4687-5.3588-4.8591-8.0858-7.2317a21.6476,21.6476,0,0,0-5.05-3.5959c-.4455-.2044-.8352-.2754-1.19.1273a.9387.9387,0,0,0-.087,1.2126,2.354,2.354,0,0,0,1.07,1.0925,4.1453,4.1453,0,0,1,1.2351.9266c1.5006,1.3691,3.0818,2.65,4.6262,3.9649,2.941,2.5042,5.72,5.189,8.6924,7.6533.4273.3542.4674.6118.0175,1.0272A22.664,22.664,0,0,0,34.0181,81.73a28.29,28.29,0,0,1-2.25,2.4683Q24.4347,79.8117,17.1,75.4272c-4.03-2.4018-8.1032-4.7339-12.095-7.1977a9.5763,9.5763,0,0,1-4.6345-7.68c-.2563-2.9437,3.1513-6.5458,6.1985-6.6248.3595-.0093.7194-.0013,1.079-.0072.714-.0119.8835-.3131.6329-.9972C7.023,49.4844,8,46.6438,10.7657,44.4108A5.0426,5.0426,0,0,1,15.7994,43.36c.2809.0971.6052.3888.8957.1465.365-.3046.0333-.6742-.0551-.9926-.6964-2.5066,1.1583-5.9261,3.4283-7.104a7.6723,7.6723,0,0,1,6.408-.4059q.0662.0162.1322.0331ZM12.1127,62.2658c.0039-1.8131-.8077-2.7962-2.32-2.8108a2.4313,2.4313,0,0,0-2.52,2.4383,2.5582,2.5582,0,0,0,2.5511,2.8181A2.24,2.24,0,0,0,12.1127,62.2658ZM47.81,32.1226a2.9679,2.9679,0,0,0-2.7212-2.5635,2.7692,2.7692,0,0,0-2.2714,2.53c-.03,1.6139.8174,2.87,1.9263,2.8555A3.2248,3.2248,0,0,0,47.81,32.1226ZM31.9773,37.0405a2.4229,2.4229,0,1,0,4.8436.1319A3.0456,3.0456,0,0,0,34.2,34.3432C33.1508,34.2931,31.98,35.7136,31.9773,37.0405ZM14.4734,51.4882A2.6513,2.6513,0,0,0,17.28,54.1408c1.0246.0191,2.1741-1.3969,2.1465-2.6441a2.4416,2.4416,0,0,0-2.5032-2.3774A2.2978,2.2978,0,0,0,14.4734,51.4882Zm7.9052-7.41c.0412,1.6374.8869,2.4995,2.3934,2.44a2.3567,2.3567,0,0,0,2.415-2.3967c-.0508-1.3119-1.1668-2.65-2.1673-2.5985A2.4645,2.4645,0,0,0,22.3786,44.0778Z" style="fill:#f7e18e"></path><path d="M128.6084,81.2176c-2.1211.1055-3.6686-1.0842-5.2371-2.2722-1.2872-.975-2.4577-2.1-4.2049-2.3685a5.1,5.1,0,0,0-5.5575,3.1529c-1.261,3.3138-1.0432,6.7433-.84,10.1711a12.705,12.705,0,0,1-1.1115,6.4078,5.0174,5.0174,0,0,1-5.6369,2.8971,5.7352,5.7352,0,0,1-4.6462-4.84c-.5736-3.0525.25-5.931.7782-8.8607.5459-3.0275,1.0913-6.0709.1368-9.11-.5255-1.6731-1.2563-3.2043-3.2815-3.5814a3.3679,3.3679,0,0,0-3.789,1.8,13.0145,13.0145,0,0,0-1.0456,4.9978c-.1608,2.5369-1.3917,4.42-3.3453,5.0513a4.0555,4.0555,0,0,1-5.2985-2.761,11.3331,11.3331,0,0,1-.1379-4.4844,63.1994,63.1994,0,0,0,.6136-7.1472,5.4234,5.4234,0,0,0-1.27-3.3985c-1.7035-2.0465-4.07-1.6873-5.7337-.2812-.9359.7909-1.6473,1.8413-2.5145,2.7209a7.2705,7.2705,0,0,1-4.9423,2.396,4.6268,4.6268,0,0,1-4.7173-3.5759,9.7044,9.7044,0,0,1,.4015-5.877,2.5239,2.5239,0,0,0,.2839-1.1509l-.01-.07a.3179.3179,0,0,0,.2114-.3756,21.07,21.07,0,0,1,5.3985-6c.383-.3083.91-.5355.9357-1.15a1.2462,1.2462,0,0,0,.9884-.34,29.0985,29.0985,0,0,1,5.7364-3.2015,21.0189,21.0189,0,0,1,5.8488-1.9837c.8128-.1167,1.89-.9792,2.3815-.2135.3889.6061-.0253,1.7624-.1593,2.663-.5564,3.7407.8373,6.8994,3.0655,9.7127a13.292,13.292,0,0,0,8.422,4.8258,10.9831,10.9831,0,0,0,9.7168-2.7737,12.5179,12.5179,0,0,0,4.2719-10.9219,27.9235,27.9235,0,0,1,5.4145,4.8087c.3344.3892.7261.7293,1.0916,1.0918a6.4717,6.4717,0,0,0,.615,1.0006,27.3344,27.3344,0,0,1,4.6892,8.0483,4.0241,4.0241,0,0,0,.99,2.4244c.34,2.4652,1.1714,4.8463,1.2714,7.352A37.3625,37.3625,0,0,1,128.6084,81.2176Z" style="fill:#d68250"></path><path d="M114.321,51.2751a12.5179,12.5179,0,0,1-4.2719,10.9219,10.9831,10.9831,0,0,1-9.7168,2.7737,13.292,13.292,0,0,1-8.422-4.8258c-2.2282-2.8133-3.6219-5.972-3.0655-9.7127.134-.9006.5482-2.0569.1593-2.663-.4913-.7657-1.5687.0968-2.3815.2135a21.0189,21.0189,0,0,0-5.8488,1.9837,29.0985,29.0985,0,0,0-5.7364,3.2015,1.2462,1.2462,0,0,1-.9884.34,11.7,11.7,0,0,1-5.82-7.4876,11.2537,11.2537,0,0,1,6.8-13.6882,12.4765,12.4765,0,0,1,10.8239.5754c-.2213.7125-.8433,1.1506-1.2089,1.7641a1.4705,1.4705,0,0,0,.1552,1.9709,1.427,1.427,0,0,0,1.9487.058c.7149-.458.9017-1.3138,1.5383-1.8062,2.3446,2.3656,3.0637,5.3648,3.122,8.7539,1.3087-.92,2.0159-2.0886,3.2214-2.69a17.0027,17.0027,0,0,1,8.519-1.921l3.1485.6581c1.1358.8692,2.5586,1.2206,3.6483,2.2332a12.1306,12.1306,0,0,1,4.09,7.0964C114.1527,49.7717,114.227,50.5249,114.321,51.2751Z" style="fill:#e3aea5"></path><path d="M43.0711,74.4676c-.9051-.7775-1.7834-1.5892-2.7208-2.3256a29.5773,29.5773,0,0,1-5.5671-5.6831c-1.8876-2.5569-3.6941-5.174-5.5146-7.78-.2118-.3032-.6866-.6069-.45-1.0171.187-.3243.6631-.1239,1.01-.1491,1.1371-.0827,2.2753-.1506,3.4128-.2243l2.8372-.0488c1.591.01,3.1769-.0223,4.77-.1029a48.5933,48.5933,0,0,1,5.82.3547,15.7018,15.7018,0,0,0,2.8387.7355,27.6289,27.6289,0,0,1,8.8919,4.6087c1.5433,1.7391,3.363,3.236,4.5914,5.25l.198.2684c-.3219,1.9461-1.0066,3.8083-1.2671,5.7752-.2071,1.5639-.2659,3.1333-.405,4.6993-1.1937.16-2.3912-.2036-3.5522-.1058a22.0974,22.0974,0,0,1-7.8032-1.1963A36.9085,36.9085,0,0,1,43.0711,74.4676Z" style="fill:#a6bf7b"></path><path d="M43.0711,74.4676a36.9085,36.9085,0,0,0,7.09,3.059,22.0974,22.0974,0,0,0,7.8032,1.1963c1.161-.0978,2.3585.2662,3.5522.1058a69.5731,69.5731,0,0,0,.7464,7.9875c-9.4976-.0041-18.9954-.0218-28.493.0048-1.1618.0032-2.2921-.2133-3.4422-.25.1181-1.0108,1.1913-1.4422,1.4405-2.3733a28.2585,28.2585,0,0,0,2.25-2.4681A22.664,22.664,0,0,1,37.27,78.568c.45-.4154.41-.673-.0175-1.0272-2.9728-2.4643-5.7514-5.1491-8.6924-7.6533-1.5444-1.3151-3.1256-2.5958-4.6262-3.9649a4.1453,4.1453,0,0,0-1.2351-.9266,2.354,2.354,0,0,1-1.07-1.0925.9387.9387,0,0,1,.087-1.2126c.3549-.4027.7446-.3317,1.19-.1273a21.6476,21.6476,0,0,1,5.05,3.5959c2.727,2.3726,5.4408,4.763,8.0858,7.2317.9789.9137,2.0386,1.7628,3.0323,2.6752a.8.8,0,0,0,1.2218.0367A26.9588,26.9588,0,0,1,43.0711,74.4676Z" style="fill:#fefefd"></path><path d="M106.2968,39.6956l-3.1485-.6581a9.3631,9.3631,0,0,1,.0118-1.0707,32.3221,32.3221,0,0,0-.8793-12.984,35.5218,35.5218,0,0,0-8.2353-14.6373q-.1313-.0577-.2623-.1158l.0211.378c.1057,1.0638.2532,2.1265.3925,3.1823a25.5826,25.5826,0,0,1-.8792,10.7319,41.9179,41.9179,0,0,1-5.0317,10.3727c-.6366.4924-.8234,1.3482-1.5383,1.8062a1.427,1.427,0,0,1-1.9487-.058,1.4705,1.4705,0,0,1-.1552-1.9709c.3656-.6135.9876-1.0516,1.2089-1.7641a26.9853,26.9853,0,0,0,5.185-16.7788,23.8619,23.8619,0,0,0-2.409-10.2538c-.0927-.1761-.2123-.3388-.2974-.5181-.2647-.5572-1.2677-1.0088-.952-1.4842A8.44,8.44,0,0,1,90.1011,1.4c.3545-.2125.6084.2842.8375.52,2.5014,2.5694,4.8028,5.3172,7.1606,8.0161a36.03,36.03,0,0,1,6.7652,11.9728,32.819,32.819,0,0,1,1.6527,15.526C106.4146,38.1842,106.3688,38.9417,106.2968,39.6956Z" style="fill:#414140"></path><path d="M140.2394,47.2105c-1.5165,2.9074-3.2221,5.7046-4.9947,8.46a7.4875,7.4875,0,0,1-1.2142,1.8636c-1.0238.0848-2.0481.1636-3.0713.2556-3.3093.2975-6.4927-.5051-9.7-1.102.2205-1.2262,1.1453-2.0641,1.7505-3.0686a79.8866,79.8866,0,0,1,4.25-6.8849,31.2332,31.2332,0,0,0,5.1712.4915C135.0327,47.2728,137.6364,47.22,140.2394,47.2105Z" style="fill:#a6bf7b"></path><path d="M140.2394,47.2105c-2.603.01-5.2067.0623-7.8087.0148a31.2332,31.2332,0,0,1-5.1712-.4915q2.7369-4.4734,5.474-8.947a37.515,37.515,0,0,0,6.0328.5174c2.4218.0467,4.7944-.6549,7.2244-.4536-1.402,2.5682-2.9129,5.0713-4.5,7.5293-.3427.5307-.6667,1.0735-.9993,1.6106-.1284.0243-.2517.0545-.2558.2219Z" style="fill:#414140"></path><path d="M145.9907,37.8506c-2.43-.2013-4.8026.5-7.2244.4536a37.515,37.515,0,0,1-6.0328-.5174,44.9074,44.9074,0,0,1,3.0769-5.2174,59.1816,59.1816,0,0,1,4.6071-7.257c.2746-.349.4675-.8637,1.0478-.8736-.094.465-.2065.9272-.2783,1.3957a4.74,4.74,0,0,0,.3771,3.2626c1.5281,2.4736,4.7137,3.9838,7.715,2.02a11.5108,11.5108,0,0,0,1.4-1.2758c.0705,1.0627-.7057,1.7336-1.22,2.498C148.246,34.1418,147.42,36.1865,145.9907,37.8506Z" style="fill:#a6bf7b"></path><path d="M150.6789,29.841a11.5108,11.5108,0,0,1-1.4,1.2758c-3.0013,1.9641-6.1869.4539-7.715-2.02a4.74,4.74,0,0,1-.3771-3.2626c.0718-.4685.1843-.9307.2783-1.3957l-.0066-.0095c.2616-.0681.2823-.2584.2428-.4791l-.0054.0024c.1667-.0109.2166-.1206.2248-.2657a4.99,4.99,0,0,1,6.076-.526,5.2945,5.2945,0,0,1,2.9921,6.0177.7055.7055,0,0,0-.2829.6536Z" style="fill:#414140"></path><path d="M121.2594,56.6873c3.2071.5969,6.3905,1.3995,9.7,1.102,1.0232-.092,2.0475-.1708,3.0713-.2556-1.6224,2.9812-3.4567,5.8345-5.2571,8.7083l-2.6421-.0175a27.3344,27.3344,0,0,0-4.6892-8.0483,6.4717,6.4717,0,0,1-.615-1.0006Z" style="fill:#414140"></path><path d="M126.1313,66.2245l2.6421.0175c-.6146.758-.7266,1.8613-1.6523,2.4063A4.021,4.021,0,0,1,126.1313,66.2245Z" style="fill:#a6bf7b"></path><path d="M150.7061,29.8322a.7055.7055,0,0,1,.2829-.6536C150.9892,29.4373,151.1688,29.7738,150.7061,29.8322Z" style="fill:#a6bf7b"></path><path d="M141.7015,23.95c.04.2207.0188.411-.2428.4791C141.3781,24.1878,141.4378,24.0173,141.7015,23.95Z" style="fill:#a6bf7b"></path><path d="M63.1883,68.3542l-.198-.2684.2661-.002a.8775.8775,0,0,1,.0213.1976C63.2751,68.3083,63.22,68.33,63.1883,68.3542Z" style="fill:#f6e6e3"></path><path d="M67.7148,60.6577a.3179.3179,0,0,1-.2114.3756Q67.6092,60.8449,67.7148,60.6577Z" style="fill:#f6e6e3"></path><path d="M30.3285,86.5678l-.2332.2233Z" style="fill:#fefefd"></path><path d="M140.2361,47.2124c.0041-.1674.1274-.1976.2558-.2218C140.4691,47.1366,140.4133,47.2446,140.2361,47.2124Z" style="fill:#a6bf7b"></path><path d="M141.9209,23.6869c-.0082.1451-.0581.2548-.2248.2657C141.6744,23.7823,141.7606,23.7033,141.9209,23.6869Z" style="fill:#a6bf7b"></path><path d="M49.507,58.2272a15.7018,15.7018,0,0,1-2.8387-.7355q-1.1714-2.7986-2.3436-5.5962c-.8775-2.0835-1.77-4.1607-2.6349-6.25a3.41,3.41,0,0,1-.2665-1.1512,1.1368,1.1368,0,0,1,.7341-1.01c.3938-.2087.6883.0469.9426.3079a3.3734,3.3734,0,0,1,.7749.8985C45.77,49.1954,47.6348,53.7129,49.507,58.2272Z" style="fill:#fefefd"></path><path d="M12.1127,62.2658a2.24,2.24,0,0,1-2.2891,2.4456,2.5582,2.5582,0,0,1-2.5511-2.8181,2.4313,2.4313,0,0,1,2.52-2.4383C11.305,59.47,12.1166,60.4527,12.1127,62.2658Z" style="fill:#fefefd"></path><path d="M47.81,32.1226a3.2248,3.2248,0,0,1-3.0663,2.8224c-1.1089.0149-1.9565-1.2416-1.9263-2.8555a2.7692,2.7692,0,0,1,2.2714-2.53A2.9679,2.9679,0,0,1,47.81,32.1226Z" style="fill:#fefefd"></path><path d="M31.9773,37.0405c.0028-1.3269,1.1735-2.7474,2.2229-2.6973a3.0456,3.0456,0,0,1,2.6207,2.8292,2.4229,2.4229,0,1,1-4.8436-.1319Z" style="fill:#fefefd"></path><path d="M14.4734,51.4882a2.2978,2.2978,0,0,1,2.45-2.3689,2.4416,2.4416,0,0,1,2.5032,2.3774c.0276,1.2472-1.1219,2.6632-2.1465,2.6441A2.6513,2.6513,0,0,1,14.4734,51.4882Z" style="fill:#fefefd"></path><path d="M36.0783,57.24l-2.8372.0488a36.2527,36.2527,0,0,0-2.8181-4.08,3.8123,3.8123,0,0,1-.76-1.1885c-.1443-.5436-.3168-1.2558.3673-1.5944a1.2417,1.2417,0,0,1,1.6143.3836A74.0276,74.0276,0,0,1,36.0783,57.24Z" style="fill:#fefefd"></path><path d="M22.3786,44.0778A2.4645,2.4645,0,0,1,25.02,41.5225c1-.0514,2.1165,1.2866,2.1673,2.5985a2.3567,2.3567,0,0,1-2.415,2.3967C23.2655,46.5773,22.42,45.7152,22.3786,44.0778Z" style="fill:#fefefd"></path><path d="M26.52,34.9637l.0883.0734q-.0662-.0168-.1322-.0331Z" style="fill:#f6e6e3"></path><path d="M88.2859,34.8946a41.9179,41.9179,0,0,0,5.0317-10.3727A25.5826,25.5826,0,0,0,94.1968,13.79c-.1393-1.0558-.2868-2.1185-.3925-3.1823l.2412-.2623a35.5228,35.5228,0,0,1,8.2353,14.6374,32.3221,32.3221,0,0,1,.8793,12.984,9.3631,9.3631,0,0,0-.0118,1.0707,17.0027,17.0027,0,0,0-8.519,1.921c-1.2055.6014-1.9127,1.77-3.2214,2.69C91.35,40.2594,90.6305,37.26,88.2859,34.8946Z" style="fill:#fbf8f3"></path><path d="M93.8043,10.6077l-.0211-.378q.1311.0579.2623.1158Z" style="fill:#fbf8f3"></path></g></g></g></svg>