<svg xmlns="http://www.w3.org/2000/svg" width="64.87" height="55" viewBox="0 0 64.87 55"><g id="Layer_2" data-name="Layer 2"><g id="Layer_1-2" data-name="Layer 1"><path d="M64.87,30.44h0C64.87,42.25,58.61,43,54.61,45a33.89,33.89,0,0,1-14,3c-6,0-4,7-12,7-11,0-8.66-6.33-22-9C1.61,45,0,35.47,0,30.44H0C0,12.52,14.52,0,32.44,0S64.87,12.52,64.87,30.44" style="fill:#f79b74"></path><path d="M26,43.55h6.46V27.36h4.51L37.42,22h-5V18.86c0-1.28.26-1.78,1.49-1.78h3.5V11.46H33c-4.81,0-7,2.11-7,6.17V22H22.61v5.48H26Z" style="fill:#fdfaf5"></path></g></g></svg>