<svg xmlns="http://www.w3.org/2000/svg" width="151.9509" height="197.046" viewBox="0 0 151.9509 197.046"><g id="e65b6f91-84fa-4cb0-98f0-d025cb4f27c4" data-name="Layer 2"><g id="b164af45-4006-4455-8771-f436aafa37c0" data-name="Layer 1"><g id="b566123d-7bf1-45fc-8665-346235d37d92" data-name="be0aec9e-5add-4952-9ce9-25567f269e5f"><g id="abfd28f1-155f-4a38-aeea-a46a41938cd5" data-name="b955c8be-4b04-4c19-b384-c98e6bff9a19"><rect width="151.9509" height="197.046" style="fill:none"/><g id="e6867fa4-f40f-4c7a-8eb0-05b6aed0ae87" data-name="e052a35e-0b20-4e4e-b8bc-29882aaa9e17"><path d="M122.6381,103.8447q-.01,15.0933-.02,30.1865c-.0022,7.546-.0146,15.0921.0306,22.6379.0064,1.0738-.25,1.4448-1.3862,1.423-3.6321-.0695-7.2665-.0192-10.9-.0151l-7.4269-.0012-26.3982-.0042a43.043,43.043,0,0,0-.3372-4.399,38.0172,38.0172,0,0,0-3.7379-11.7735,30.6492,30.6492,0,0,0-7.69-9.6337,33.0033,33.0033,0,0,0-11.7644-5.9773,29.3294,29.3294,0,0,0-12.656-.2607,34.7031,34.7031,0,0,0-11.1727,3.979,29.3993,29.3993,0,0,0-9.5206,8.208,27.504,27.504,0,0,0-4.1187,8.3139,48.4913,48.4913,0,0,0-1.7041,7.416c-.2081,1.3777.1349,2.7907-.3866,4.1222-1.6777.0027-3.3568-.0352-5.0326.0239-.96.0339-1.2326-.3441-1.2285-1.2647.0268-6.1091.0082-12.2183.0069-18.3276q-.0029-14.6557-.0014-29.3115c.0019-6.6686.0232-13.3372.0028-20.0056a8.1863,8.1863,0,0,0,.0949-2.2451c-.18-.6966.5637-.6192,1.0068-.6219,1.8766-.0116,3.7533.0093,5.63.0183,1.7885-.1554,3.5777.2532,5.3664-.0069,1.1658-.121,2.33.24,3.4958.0092a7.2366,7.2366,0,0,0,2.2418-.004q11.8779.0048,23.7558.0035,6.4355-.0024,12.8709-.0232l5.525.0191,38.8618-.0113a29.4164,29.4164,0,0,0,4.9947-.0009l5.3034.01c1.7131.001,3.4278.0476,5.1385-.0158.8839-.0329,1.173.2207,1.1562,1.1328-.0594,3.2262-.0347,6.454-.0418,9.6812-.9177-.0006-1.8363-.0272-2.753.0029-3.7011.1215-7.4127-.264-11.1057.23a3.1284,3.1284,0,0,0-2.6658,2.93,3.3465,3.3465,0,0,0,2.5878,3.2877,27.73,27.73,0,0,0,3.4443.2748C115.6146,103.8058,119.1266,103.8409,122.6381,103.8447ZM87.9147,133.5759a3.338,3.338,0,0,1,.8551.4105c1.9855,1.7984,4.3825,3.0054,6.5359,4.5649,3.2285,2.3381,6.5769,4.5106,9.8688,6.7615q3.9024,2.6684,7.7907,5.3573c.5165.3563,1.0939.6727,1.6551.2745.6335-.45.29-1.1087.0635-1.64-.5466-1.2815-1.1355-2.5458-1.7387-3.802q-3.31-6.8943-6.6436-13.7774c-1.683-3.4728-3.3855-6.9361-5.0794-10.4037a3.4573,3.4573,0,0,0-.2021-1.7568,12.38,12.38,0,0,0-3.0468-4.6172,8.2142,8.2142,0,0,0-7.778-2.52,6.32,6.32,0,0,0-.9885-5.5653c-1.4079-2.2928-3.157-4.2933-5.8268-5.06a10.4184,10.4184,0,0,0-8.1757,1.1331,18.1068,18.1068,0,0,0-5.8536,5.5332,8.891,8.891,0,0,0,3.1642,13.1594,10.6727,10.6727,0,0,0,6.2582,1.0052,9.2923,9.2923,0,0,0,.5309,5.4777A9.6373,9.6373,0,0,0,87.9147,133.5759Z" style="fill:#e3aea5"/><path d="M13.4488,158.0665c.5215-1.3315.1785-2.7445.3866-4.1222a48.494,48.494,0,0,1,1.7041-7.416,27.5052,27.5052,0,0,1,4.1187-8.3139,29.4017,29.4017,0,0,1,9.5206-8.208,34.7054,34.7054,0,0,1,11.1727-3.979,29.3294,29.3294,0,0,1,12.656.2607,33.0033,33.0033,0,0,1,11.7644,5.9773,30.6492,30.6492,0,0,1,7.69,9.6337A38.0175,38.0175,0,0,1,76.2,153.6726a43.043,43.043,0,0,1,.3372,4.399c.1748,5.65-1.5646,10.7481-4.0645,15.7619a27.27,27.27,0,0,1-10.794,11.4986c-4.9135,2.9244-10.1968,4.7835-15.9776,4.6055a33.2515,33.2515,0,0,1-14.1056-3.584,39.961,39.961,0,0,1-8.4745-5.7743c-3.9992-3.522-6.4432-8.0537-8.17-13.017A27.0453,27.0453,0,0,1,13.4488,158.0665Zm8.3619,1.9864c.0178,3.1706,1.2791,5.974,2.6153,8.7472a9.65,9.65,0,0,0,2.5457,3.68,6.4958,6.4958,0,0,0,2.4912,2.6171,17.5088,17.5088,0,0,0,3.5012,2.6419,23.7832,23.7832,0,0,0,9.8744,3.5515,16.8555,16.8555,0,0,0,3.6556.2735,17.8716,17.8716,0,0,0,4.4408-.7114,21.1,21.1,0,0,0,9.0712-4.7232,7.6343,7.6343,0,0,0,2.6784-2.464,14.0977,14.0977,0,0,0,1.7458-2.4011,28.0082,28.0082,0,0,0,3.9028-11.2724,19.3435,19.3435,0,0,0-.2025-3.5607,24.7373,24.7373,0,0,0-3.2084-11.067,7.0874,7.0874,0,0,0-1.6506-2.4328,7.4364,7.4364,0,0,0-2.5241-2.8006c-.2152-.9577-1.1446-1.1782-1.7932-1.6363-3.7345-2.6377-7.7426-4.5607-12.472-4.4112a6.3949,6.3949,0,0,0-3.6508.2543,13.3806,13.3806,0,0,0-1.9083.0719,24.0608,24.0608,0,0,0-8.9128,3.6258c-.9754.632-2.1871,1.0277-2.7724,2.1788a8.0369,8.0369,0,0,0-2.48,2.7214c-.3532.0659-.5009.3428-.6843.6131a25.8744,25.8744,0,0,0-4.2185,12.8785C21.95,157.6372,21.3986,158.8392,21.8107,160.0529Z" style="fill:#f7e18e"/><path d="M122.6381,103.8447c-3.5115-.0038-7.0235-.0389-10.5344.0062a27.73,27.73,0,0,1-3.4443-.2748,3.3465,3.3465,0,0,1-2.5878-3.2877,3.1284,3.1284,0,0,1,2.6658-2.93c3.693-.4939,7.4046-.1084,11.1057-.23.9167-.03,1.8353-.0035,2.753-.0029,6.0272.0048,12.0545-.0027,18.0818.0251a4.5647,4.5647,0,0,1,3.2424.9426,2.9571,2.9571,0,0,1,.8985,3.2528,2.9058,2.9058,0,0,1-2.7433,2.2666,116.7731,116.7731,0,0,1-11.8187.1105C127.7265,103.6856,125.1771,103.7489,122.6381,103.8447Z" style="fill:#f7e18e"/><path d="M102.9355,158.0758l7.4269.0012c-.01,4.8634.0194,9.7274-.0423,14.59-.0526,4.1433.2172,8.29-.1468,12.43-.1931,2.1964-1.57,3.6784-3.4852,3.6712a3.7151,3.7151,0,0,1-3.7109-3.7193q0-.0817.0038-.1635c-.0324-8.0587-.0287-16.1176-.039-24.1765Q102.94,159.3927,102.9355,158.0758Z" style="fill:#d68250"/><path d="M13.9318,51.3064c1.0126-.0633,1.9161.5062,2.9336.4808a15.8237,15.8237,0,0,0,2.4907-.242c.0051,3.86.0189,7.72.0124,11.58-.008,4.6776-.0369,9.3551-.05,14.0327-.0084,3.0559.1613,6.1123-.0251,9.1678-1.7884.26-3.5776-.1485-5.3661.0069q.016-17.2142.0307-34.4285C13.9585,51.7047,13.9411,51.5056,13.9318,51.3064Z" style="fill:#a6bf7b"/><path d="M111.1264,51.4833a12.563,12.563,0,0,0,5.2381.028q-.0105,17.4081-.0212,34.8165l-5.3032-.01c-.0433-3.3969-.1249-6.794-.12-10.1909.0052-3.4816.1534-6.9635.1337-10.4446C111.0273,60.9486,110.85,56.2152,111.1264,51.4833Z" style="fill:#a6bf7b"/><path d="M65.1851,6.6317c-.038.1043-.089.1064-.1511.019A.8637.8637,0,0,1,65.1851,6.6317Z" style="fill:#f6e6e3"/><path d="M22.79,86.3346a8.8986,8.8986,0,0,1,5.05-6.2818,31.5207,31.5207,0,0,1,5.17-1.3888c4.0628-.9366,6.1225-4.7894,6.5832-8.363a1.6708,1.6708,0,0,0-.5673-1.4814,4.4964,4.4964,0,0,1-.8151-5.7587,4.2841,4.2841,0,0,1,5.48-2.15c3.3545,1.061,4.1635,5.3869,1.9111,7.8647a2.6864,2.6864,0,0,0-.5675,2.8032c1.0817,4.608,4.15,7.0684,8.6812,7.6962,4.284.5934,6.7291,3.0731,7.9429,7.0359q-6.4354.012-12.8709.0231-11.8779.0043-23.7558-.0035A7.2366,7.2366,0,0,1,22.79,86.3346Z" style="fill:#f7e18e"/><path d="M67.1833,86.33c.7928-2.8135,2.3111-5.1244,5.0562-6.2783a31.61,31.61,0,0,1,5.1686-1.3879c4.0627-.9372,6.1211-4.7894,6.5822-8.3621a1.6581,1.6581,0,0,0-.573-1.4768,4.6266,4.6266,0,0,1-.6731-6.0872,4.47,4.47,0,0,1,5.6649-1.7295,4.8873,4.8873,0,0,1,1.5734,7.7666,2.7936,2.7936,0,0,0-.5487,2.8105c1.0809,4.61,4.1567,7.0623,8.684,7.6908,4.2851.5949,6.7261,3.0741,7.9274,7.0427Z" style="fill:#f7e18e"/><path d="M78.7735,122.6335a10.6775,10.6775,0,0,1-6.2587-1.0056,8.89,8.89,0,0,1-3.1642-13.1594,18.1068,18.1068,0,0,1,5.8536-5.5332,10.418,10.418,0,0,1,8.1757-1.1331c2.67.7664,4.4189,2.7669,5.8268,5.06a6.32,6.32,0,0,1,.9885,5.5656,9.643,9.643,0,0,0-5.9174,5.72A7.2766,7.2766,0,0,1,78.7735,122.6335Z" style="fill:#a6bf7b"/><path d="M101.2221,121.3212c1.6939,3.4676,3.3964,6.9309,5.0794,10.4037q3.3354,6.8821,6.6436,13.7774c.6032,1.2562,1.1921,2.52,1.7387,3.802.2268.5316.57,1.1907-.0635,1.64-.5612.3982-1.1386.0818-1.6551-.2745q-3.8914-2.6843-7.7907-5.3573c-3.2919-2.2509-6.64-4.4234-9.8688-6.7615-2.1534-1.5595-4.55-2.7665-6.5359-4.5649a3.3409,3.3409,0,0,0-.8545-.41,3.8682,3.8682,0,0,1,1.0179-1.1547C92.8617,128.5358,97.12,125.0144,101.2221,121.3212Z" style="fill:#d68250"/><path d="M101.2221,121.3212c-4.1025,3.6932-8.36,7.2146-12.2889,11.1a3.8682,3.8682,0,0,0-1.0179,1.1547,9.6379,9.6379,0,0,1-8.6114-5.4652,9.29,9.29,0,0,1-.5307-5.4775,7.2756,7.2756,0,0,0,5.5046-4.4862,9.643,9.643,0,0,1,5.9174-5.72,8.2132,8.2132,0,0,1,7.778,2.52,12.3816,12.3816,0,0,1,3.0468,4.6172A3.4579,3.4579,0,0,1,101.2221,121.3212Z" style="fill:#fefefd"/><path d="M46.4822,134.0834c4.73-.1493,8.7376,1.7737,12.4721,4.4114.6486.4581,1.578.6786,1.7929,1.6367-3.4775,3.656-7.2609,6.9953-10.8677,10.5167a18.1443,18.1443,0,0,0-3.4385-1.4749Q46.4617,141.6283,46.4822,134.0834Z" style="fill:#e3aea5"/><path d="M29.2376,140.2142c.5857-1.1509,1.7974-1.5466,2.7728-2.1786a24.0608,24.0608,0,0,1,8.9128-3.6258,13.3631,13.3631,0,0,1,1.9081-.0718q.0572,7.5435.1146,15.0868a13.3007,13.3007,0,0,0-3.3206,1.2329Z" style="fill:#e3aea5"/><path d="M63.2716,142.9317a7.0874,7.0874,0,0,1,1.6506,2.4328,24.7373,24.7373,0,0,1,3.2084,11.067c-.9165.0089-1.8331.0274-2.7495.025-4.1-.0108-8.2-.1065-12.2982.0887.0919-1.1671-.625-2.1325-.8035-3.2318Z" style="fill:#e3aea5"/><path d="M21.8551,156.4271a25.8722,25.8722,0,0,1,4.2183-12.8782c.1834-.27.3311-.5472.6844-.6129L37.4424,153.48c-.2173,1.03-.8755,1.9443-.8043,3.0506a14.8123,14.8123,0,0,0-3.2189-.058C29.5646,156.4838,25.71,156.4463,21.8551,156.4271Z" style="fill:#e3aea5"/><path d="M42.8385,181.2908q.0582-7.6389.1166-15.2779a8.4912,8.4912,0,0,0,3.4437.25c-.0018,2.73.0277,5.46-.0214,8.1915-.0425,2.3606.0443,4.74.1166,7.11A16.8672,16.8672,0,0,1,42.8385,181.2908Z" style="fill:#414140"/><path d="M60.0061,176.13c-2.8677-2.9042-5.726-5.8179-8.61-8.7058a12.6272,12.6272,0,0,1-2.0791-2.1112,26.212,26.212,0,0,0,2.4995-2.44l10.868,10.7934A7.6337,7.6337,0,0,1,60.0061,176.13Z" style="fill:#414140"/><path d="M42.9458,149.4247q-.0573-7.5434-.1145-15.0867a6.3952,6.3952,0,0,1,3.6509-.2545l-.0411,15.09A15.6506,15.6506,0,0,0,42.9458,149.4247Z" style="fill:#414140"/><path d="M63.2716,142.9317,52.28,153.3133q-1.2-1.3328-2.4-2.6649c3.6069-3.5216,7.39-6.8609,10.8678-10.5169A7.4313,7.4313,0,0,1,63.2716,142.9317Z" style="fill:#414140"/><path d="M37.4425,153.48,26.7578,142.936a8.0368,8.0368,0,0,1,2.48-2.7217L39.625,150.6574Q38.5335,152.0684,37.4425,153.48Z" style="fill:#414140"/><path d="M53.0832,156.5457c4.0981-.1957,8.1983-.1,12.2979-.0892.9164.0024,1.833-.0161,2.7495-.025a19.3132,19.3132,0,0,1,.2022,3.5611q-7.6523-.0057-15.3037-.012Q53.056,158.2631,53.0832,156.5457Z" style="fill:#414140"/><path d="M26.9717,172.48l10.6731-10.126,2.4707,2.4692-10.6523,10.274A6.4929,6.4929,0,0,1,26.9717,172.48Z" style="fill:#414140"/><path d="M36.6841,159.9667q-6.4895.0241-12.9788.05c-.6315.0027-1.2628.0238-1.8944.0364-.4123-1.2137.1392-2.4157.0441-3.6257,3.8548.0191,7.71.0566,11.5642.0455a14.8465,14.8465,0,0,1,3.2192.0575Q36.6615,158.2481,36.6841,159.9667Z" style="fill:#414140"/><path d="M36.6841,159.9667q-.0227-1.7184-.0457-3.4365c-.0715-1.1058.5867-2.02.804-3.05q1.0912-1.4115,2.1826-2.8227a13.3191,13.3191,0,0,1,3.3209-1.2326,15.644,15.644,0,0,1,3.4952-.2515,18.1406,18.1406,0,0,1,3.4384,1.4749l2.4,2.665c.1782,1.1.8951,2.0649.8032,3.232q-.0267,1.7183-.0538,3.4354a15.1071,15.1071,0,0,1-1.2125,2.8916,26.2173,26.2173,0,0,1-2.5,2.4405c-1.0371.119-1.87.8652-2.9182.95a8.4916,8.4916,0,0,1-3.4438-.25,12.59,12.59,0,0,1-2.84-1.19l-2.4707-2.4692Q37.1644,161.16,36.6841,159.9667Z" style="fill:#a6bf7b"/><path d="M7.9605,6.635H26.4042V42.1867a9.7122,9.7122,0,0,1-9.7121,9.7121h0A9.7122,9.7122,0,0,1,6.98,42.1867h0V7.6155a.9806.9806,0,0,1,.9806-.9806Z" style="fill:#e3aea5"/><path d="M113.2789,51.8988h0a9.7121,9.7121,0,0,1-9.7121-9.7121V6.6349H122.01a.9806.9806,0,0,1,.9806.9806V42.1867A9.7122,9.7122,0,0,1,113.2789,51.8988Z" style="fill:#d68250"/><path d="M93.8545,51.8988h0a9.7122,9.7122,0,0,1-9.7121-9.7121V6.6349h19.4242V42.1867A9.7122,9.7122,0,0,1,93.8545,51.8988Z" style="fill:#e3aea5"/><path d="M74.4305,51.8988h0a9.7122,9.7122,0,0,1-9.7121-9.7121V6.6349h19.424V42.1867A9.7121,9.7121,0,0,1,74.4305,51.8988Z" style="fill:#d68250"/><path d="M55.0059,51.8988h0a9.7122,9.7122,0,0,1-9.7121-9.7121V6.6349H64.7181V42.1867a9.7122,9.7122,0,0,1-9.7121,9.7121Z" style="fill:#e3aea5"/><path d="M35.5817,51.8988h0A9.7122,9.7122,0,0,1,25.87,42.1867V6.6349H45.2934V42.1867A9.7121,9.7121,0,0,1,35.5817,51.8988Z" style="fill:#d68250"/></g></g></g></g></g></svg>