<svg xmlns="http://www.w3.org/2000/svg" width="151.9509" height="197.046" viewBox="0 0 151.9509 197.046"><g id="e32b6da0-c852-44d4-adb2-2671c0f920b4" data-name="Layer 2"><g id="adaa1085-713c-4f79-b587-00073401eae5" data-name="IW_DeHoop_iconen_verzameld_def&#xA0;Image"><rect width="151.9509" height="197.046" style="fill:none"></rect><g id="f189e678-fbb6-4e4e-8053-70fc8489e9c9" data-name="Ijstaarten"><path d="M4.4044,139.5493q-.0012-.4345-.0026-.8693a3.9027,3.9027,0,0,0,.0877-1.6818q-.0192-.2922-.0378-.584.0766-.6811.1525-1.363c2.0288-.0084,4.0575-.02,6.0863-.0245q7.5163-.0163,15.0326-.0273,10.329-.0065,20.658-.0127c1.3971.0142,2.7941.0422,4.191.0394q8.0859-.0164,16.1718-.0486,10.227.0119,20.4537.0241l20.5837-.0105,20.455-.0017,19.1965.0133q.0537.3937.1071.7874-.0166.3345-.0327.6695l-.0193,2.194q-.001.3447-.002.69.0242.4978.0482.9954a.181.181,0,0,0-.0425.2121l-.0385.9733q.026.3467.0518.6932c-.0039,6.5093-.0267,13.0188.0094,19.5279.0051.936-.2466,1.2256-1.1937,1.2222q-14.0717-.049-28.1436-.0249-17.897.0041-35.794.0142c-8.3837-.0071-16.7685-.1481-25.1509-.0534-7.1034.08-14.2074.0526-21.31.0723q-12.9213.036-25.8461-.04c-1.5524-.0074-3.1047-.033-4.657-.0233-.6416.004-.8745-.1924-.8715-.9.0277-6.428-.2359-12.8548-.0839-19.2839.0094-.3977-.0486-.7971-.0753-1.1957.021-.0277.0626-.0584.0592-.0827a1.1235,1.1235,0,0,0-.0584-.1883q.01-.2011.021-.4026A1.3274,1.3274,0,0,0,4.4044,139.5493Z" style="fill:#d68250"></path><path d="M23.4663,74.05q5.5044.0194,11.0089.0374,5.1063.0095,10.2125-.0054c.4172-.0014.8925.1592,1.2208-.2751a16.8405,16.8405,0,0,1,2.3981.991c2.3839,1.4417,4.9357,1.1482,7.4766,1.0074a15.9212,15.9212,0,0,0,7.6505-2.7864,15.0319,15.0319,0,0,0,8.6014,6.2539c5.4736,1.6376,10.2467-.0318,14.4107-3.7447.5033-.4487.78-1.116,1.3984-1.455l15.9193.0152c.0387.3162.067.6342.1176.9485a4.3959,4.3959,0,0,0,6.8631,3.002,4.6878,4.6878,0,0,0,1.8542-3.95l14.1953.0071c6.4776-.0024,12.9555.017,19.4328-.0282,1.101-.0077,1.4508.3269,1.4549,1.4371a36.2374,36.2374,0,0,0,.1464,6.3329c.0592.33-.2628.7288-.4085,1.0961a12.5443,12.5443,0,0,0-5.75,6.43c-.9727,2.1709-1.5744,4.5005-2.7849,6.5672a8.8112,8.8112,0,0,1-4.7946,3.8632,13.1962,13.1962,0,0,1-5.8576.4025,11.503,11.503,0,0,1-4.275-2.921c-.7127-.9-1.54-1.6992-2.2657-2.5952a7.7462,7.7462,0,0,0-4.96-3.045,8.8267,8.8267,0,0,0-9.1431,4.0446,35.09,35.09,0,0,0-3.1375,5.33,15.0825,15.0825,0,0,1-5.67,6.1342c-3.8762,2.3044-7.7513,1.76-11.5858-.1723-4.5028-2.2781-6.8666-6.2672-8.4814-10.7889a23.1661,23.1661,0,0,0-3.8918-7.33,9.0542,9.0542,0,0,0-8.27-3.2546A10.3526,10.3526,0,0,0,60.065,88.55a32.1733,32.1733,0,0,0-4.1244,5.9874c-.9615,1.549-1.6357,3.2749-2.9655,4.6021a10.4462,10.4462,0,0,1-6.6111,3.2069c-3.0091.1258-5.2481-1.336-7.1329-3.4922a20.9528,20.9528,0,0,1-3.7795-7.24,19.8584,19.8584,0,0,0-2.03-4.8366,7.7207,7.7207,0,0,0-7.6877-3.3362,6.19,6.19,0,0,0-5.2969,3.1243c-1.24,2.0008-1.9518,4.2638-3.2261,6.2457-1.2466,1.9391-2.3775,3.9537-4.3524,5.2995A21.19,21.19,0,0,1,4.4109,101.52c.127-2.3919-.1864-4.7742-.0735-7.1756.111-2.36-.2614-4.7418-.16-7.1028.1193-2.7736-.0087-5.5361-.0607-8.3014-.023-1.2227.4156-2.3992.0954-3.672-.1979-.7863.4855-1.2023,1.3852-1.1951,3.0784.0246,6.1574-.0158,9.2361-.0314a4.6014,4.6014,0,0,0,4.47,3.7316A4.2972,4.2972,0,0,0,23.4663,74.05ZM92.9584,87.2756a4.4049,4.4049,0,0,0-4.49,4.3367,4.5438,4.5438,0,0,0,4.2283,4.5164,4.33,4.33,0,0,0,4.4849-4.3063A4.603,4.603,0,0,0,92.9584,87.2756Zm39.601.0947a4.2857,4.2857,0,0,0,4.3192-4.335,4.573,4.573,0,0,0-4.3455-4.5379,4.4315,4.4315,0,0,0-4.3309,4.38A4.4969,4.4969,0,0,0,132.5594,87.37ZM47.4355,78.3138A4.33,4.33,0,0,0,42.9963,82.9a4.7637,4.7637,0,0,0,4.5544,4.2319,4.4133,4.4133,0,0,0-.1152-8.8184Z" style="fill:#fefefd"></path><path d="M103.7635,74.088l-15.9189-.0153c.1583-.3654.291-.7442.4781-1.094,4.1151-7.6942,1.5247-18.0354-6.1618-21.5838,3.22-5.9589,8.4012-9.3143,14.7381-11.1872a24.3726,24.3726,0,0,1,12.6149-.65,23.8125,23.8125,0,0,1,12.4082,7.3862A24.354,24.354,0,0,1,127.17,55.683a26.7894,26.7894,0,0,1,1.3779,11.5235,21.69,21.69,0,0,1-1.754,6.8893l-14.1951-.007q-.1867-.5636-.3738-1.1269a4.3044,4.3044,0,0,0-6.4339-2.2381A5.162,5.162,0,0,0,103.7635,74.088Z" style="fill:#f7e18e"></path><path d="M4.4109,101.52a21.19,21.19,0,0,0,8.4473-3.4094c1.9749-1.3458,3.1058-3.36,4.3524-5.2995,1.2743-1.9819,1.9859-4.2449,3.2261-6.2457a6.1892,6.1892,0,0,1,5.297-3.1242q-.0052,25.779-.0106,51.558-7.5163.0133-15.0326.0273c-2.0288.0044-4.0575.0161-6.0862.0243a1.1172,1.1172,0,0,1-.2188-.0216q.0009-4.5466.0016-9.0937c.027-.0273.08-.06.0761-.0805a1.0578,1.0578,0,0,0-.076-.1906q.0033-4.54.0066-9.08Q4.4015,109.0522,4.4109,101.52Z" style="fill:#f7e18e"></path><path d="M128.2325,100.1968a13.1962,13.1962,0,0,0,5.8576-.4025,8.8112,8.8112,0,0,0,4.7946-3.8632c1.21-2.0667,1.8122-4.3963,2.7849-6.5672a12.5443,12.5443,0,0,1,5.75-6.43q.0068,26.0343.0135,52.069-9.5982-.0068-19.1966-.0131Q128.2341,117.5936,128.2325,100.1968Z" style="fill:#f7e18e"></path><path d="M82.1609,51.3949c7.6865,3.5484,10.2769,13.89,6.1618,21.5838-.1871.35-.32.7286-.4781,1.094-.6186.3391-.8955,1.0064-1.3988,1.4551-4.164,3.7129-8.9371,5.3823-14.4107,3.7447a15.0324,15.0324,0,0,1-8.6013-6.2535,21.17,21.17,0,0,1-1.8479-4.2209,19.144,19.144,0,0,1,.7658-9.6391c1.3022-3.8275,4.084-6.0922,7.5515-7.6782A14.44,14.44,0,0,1,82.1609,51.3949Z" style="fill:#d68250"></path><path d="M23.4663,74.05a4.2972,4.2972,0,0,1-4.1623,3.7238,4.6014,4.6014,0,0,1-4.47-3.7316c-.1775-3.3135,2.18-5.6033,5.1714-5.0241A4.6491,4.6491,0,0,1,23.4663,74.05Z" style="fill:#414140"></path><path d="M4.49,136.9982a3.9027,3.9027,0,0,1-.0877,1.6818A3.87,3.87,0,0,1,4.49,136.9982Z" style="fill:#f6e6e3"></path><path d="M4.3855,135.0294a1.1172,1.1172,0,0,0,.2188.0216q-.0762.6819-.1526,1.3632Q4.4183,135.7214,4.3855,135.0294Z" style="fill:#f6e6e3"></path><path d="M4.4044,139.5493a1.3274,1.3274,0,0,1,.0061,1.309Q4.4077,140.2042,4.4044,139.5493Z" style="fill:#f6e6e3"></path><path d="M147.5049,142.2172q-.0258-.3467-.0518-.6932A.4413.4413,0,0,1,147.5049,142.2172Z" style="fill:#f6e6e3"></path><path d="M147.486,139.3432q.0008-.3448.0019-.69A.4461.4461,0,0,1,147.486,139.3432Z" style="fill:#f6e6e3"></path><path d="M147.5072,136.46q.0163-.3349.0327-.6695A.4922.4922,0,0,1,147.5072,136.46Z" style="fill:#f6e6e3"></path><path d="M4.39,141.2609a1.1235,1.1235,0,0,1,.0584.1883c.0034.0243-.0382.055-.0592.0827Z" style="fill:#f6e6e3"></path><path d="M147.4916,140.5507a.181.181,0,0,1,.0425-.2121.811.811,0,0,1,.0216.1569C147.555,140.5147,147.5141,140.5323,147.4916,140.5507Z" style="fill:#f6e6e3"></path><path d="M61.586,68.7981a14.333,14.333,0,0,1-4.9714,2.5062,10.6108,10.6108,0,0,1-10.8039-3.58c-.1543-.1591-.1942-.2871.089-.327a21.7725,21.7725,0,0,0,3.6161-1.0948,14.2438,14.2438,0,0,0,4.87-3.2471A19.7952,19.7952,0,0,0,59.3633,55.99c1.11-2.6286,1.81-5.2171,1.0515-8.0893a8.3667,8.3667,0,0,0-6.7185-5.7557c-3.5768-.3884-6.4526,1.1451-9.2406,3.0514a10.2855,10.2855,0,0,0-2.4593,2.8964,18.11,18.11,0,0,0-3.5445,8.8224,51.3026,51.3026,0,0,0,.3077,6.2778l-.0654.2942h0c-.633-.2176-1.2846-.3926-1.8957-.66a10.1679,10.1679,0,0,1-5.54-5.3422,14.5829,14.5829,0,0,1-.7455-7.5152c.351-2.5754.4438-2.5627-2.0419-3.3193-.1526-.0465-.3027-.1014-.4561-.1446-1.4418-.4061-1.7206-.1938-1.7532,1.37a16.2477,16.2477,0,0,1-.0717,3.2205,11.0856,11.0856,0,0,0,.2337,5.4309,13.9357,13.9357,0,0,0,4.9869,8.0344c1.9043,1.4277,3.7675,2.87,6.16,3.1491,2.0268.2367,3.6695.7781,4.6314,2.7572A4.8311,4.8311,0,0,0,43.8293,72.03c.7351.5343,1.39,1.1794,2.0792,1.7766a16.8519,16.8519,0,0,1,2.3981.9909c2.3839,1.4418,4.9357,1.1483,7.4766,1.0075a15.9255,15.9255,0,0,0,7.6506-2.786A21.1578,21.1578,0,0,1,61.586,68.7981Zm-18.3-6.0919a11.1422,11.1422,0,0,1-.57-3.2835c.1189-4.766,1.71-8.482,5.2376-11.2031a6.557,6.557,0,0,1,4.9158-1.6716A3.878,3.878,0,0,1,56.3644,51.26a16.5085,16.5085,0,0,1-5.056,8.8442,11.93,11.93,0,0,1-7.344,3.08A.5429.5429,0,0,1,43.2855,62.7062Z" style="fill:#a6bf7b"></path><path d="M4.3872,125.6646a1.0578,1.0578,0,0,1,.076.1906c.0044.02-.0491.0532-.0761.0805Z" style="fill:#f6e6e3"></path><path d="M25.7231,134.9994q.0053-25.779.0106-51.558a7.72,7.72,0,0,1,7.6876,3.3361,19.8584,19.8584,0,0,1,2.03,4.8366,20.9528,20.9528,0,0,0,3.7795,7.24c1.8848,2.1562,4.1238,3.618,7.133,3.4925.0969,3.0136-.0463,6.0266-.039,9.04.0074,3.0072-.0265,6.0277-.0458,9.0323-.0155,2.3918-.1093,4.8134.0541,7.2251.165,2.4373.0436,4.8941.0477,7.3424Z" style="fill:#e3aea5"></path><path d="M66.5521,85.5985a9.0542,9.0542,0,0,1,8.27,3.2546,23.1661,23.1661,0,0,1,3.8918,7.33c1.6148,4.5217,3.9786,8.5108,8.4811,10.7888q.001,14.0146.0026,28.0295-10.2271-.0118-20.4537-.0234c-.0344-1.1906-.22-2.367-.2155-3.5674.03-8.5371.0136-17.0745.013-25.6118q0-5.7861.0029-11.5723Q66.5468,89.9126,66.5521,85.5985Z" style="fill:#e3aea5"></path><path d="M128.2325,100.1968q.0017,17.3966.0037,34.7929-10.2273,0-20.4545.0017c-.0071-1.1534-.2344-2.2872-.2155-3.4509.1274-7.87-.0418-15.74.0953-23.6122.0582-3.3423.0437-6.7069-.1121-10.0558-.0345-.7413.5548-1.46.0395-2.1923a8.8267,8.8267,0,0,1,9.1431-4.0446,7.7462,7.7462,0,0,1,4.96,3.045c.7256.896,1.553,1.695,2.2657,2.5952A11.503,11.503,0,0,0,128.2325,100.1968Z" style="fill:#e3aea5"></path><path d="M66.5521,85.5985q-.0037,4.314-.0075,8.6279-.0029,5.7861-.0029,11.5723c.0006,8.5373.0172,17.0747-.013,25.6118-.0042,1.2.1811,2.3768.2155,3.5674q-8.0864.0249-16.1721.0482c-1.3969.0028-2.7939-.0252-4.191-.0394-.0041-2.4486.1173-4.9054-.0477-7.3427-.1634-2.4117-.07-4.8333-.0541-7.2251.0193-3.0046.0532-6.0251.0458-9.0323-.0073-3.0137.1359-6.0267.039-9.04a10.4481,10.4481,0,0,0,6.611-3.2072c1.33-1.3272,2.004-3.0531,2.9655-4.6021A32.1733,32.1733,0,0,1,60.065,88.55,10.3526,10.3526,0,0,1,66.5521,85.5985Z" style="fill:#f7e18e"></path><path d="M107.5889,95.68c.5153.7321-.074,1.451-.0395,2.1923.1558,3.3489.17,6.7135.1121,10.0558-.1371,7.8722.0321,15.7426-.0953,23.6122-.0189,1.1637.2084,2.2975.2155,3.4509q-10.2926.0048-20.5841.01-.001-14.0152-.0023-28.03c3.8348,1.9322,7.71,2.4768,11.5861.1724a15.0825,15.0825,0,0,0,5.67-6.1342A35.09,35.09,0,0,1,107.5889,95.68Z" style="fill:#f7e18e"></path><path d="M92.9584,87.2756a4.603,4.603,0,0,1,4.2236,4.5468,4.33,4.33,0,0,1-4.4849,4.3063,4.5438,4.5438,0,0,1-4.2283-4.5164A4.4049,4.4049,0,0,1,92.9584,87.2756Z" style="fill:#414140"></path><path d="M103.7635,74.088a5.162,5.162,0,0,1,2.0272-3.3642,4.3044,4.3044,0,0,1,6.4339,2.2381q.1881.5629.3738,1.1269a4.6878,4.6878,0,0,1-1.8542,3.95,4.3959,4.3959,0,0,1-6.8631-3.002C103.8305,74.7222,103.8022,74.4042,103.7635,74.088Z" style="fill:#414140"></path><path d="M132.5594,87.37a4.4969,4.4969,0,0,1-4.3572-4.4931,4.4315,4.4315,0,0,1,4.3309-4.38,4.573,4.573,0,0,1,4.3455,4.5379A4.2857,4.2857,0,0,1,132.5594,87.37Z" style="fill:#414140"></path><path d="M47.4355,78.3138a4.4133,4.4133,0,0,1,.1152,8.8184A4.7637,4.7637,0,0,1,42.9963,82.9,4.33,4.33,0,0,1,47.4355,78.3138Z" style="fill:#414140"></path></g></g></g></svg>