<svg xmlns="http://www.w3.org/2000/svg" width="64.87" height="55" viewBox="0 0 64.87 55"><g id="Layer_2" data-name="Layer 2"><g id="Layer_1-2" data-name="Layer 1"><path d="M64.87,30.44h0C64.87,42.25,58.61,43,54.61,45a33.89,33.89,0,0,1-14,3c-6,0-4,7-12,7-11,0-8.66-6.33-22-9C1.61,45,0,35.47,0,30.44H0C0,12.52,14.52,0,32.44,0S64.87,12.52,64.87,30.44" style="fill:#f79b74"></path><path d="M32.44,8.22c-4.15,0-4.67,0-6.3.09A11.28,11.28,0,0,0,22.43,9a7.44,7.44,0,0,0-2.71,1.76A7.53,7.53,0,0,0,18,13.49a11,11,0,0,0-.71,3.71c-.08,1.63-.09,2.15-.09,6.3s0,4.67.09,6.3A11,11,0,0,0,18,33.51a7.53,7.53,0,0,0,1.76,2.71A7.44,7.44,0,0,0,22.43,38a11.28,11.28,0,0,0,3.71.71c1.63.07,2.15.09,6.3.09s4.67,0,6.3-.09A11.39,11.39,0,0,0,42.45,38a7.49,7.49,0,0,0,2.7-1.76,7.69,7.69,0,0,0,1.77-2.71,11.55,11.55,0,0,0,.71-3.71c.07-1.63.09-2.15.09-6.3s0-4.67-.09-6.3a11.55,11.55,0,0,0-.71-3.71,7.69,7.69,0,0,0-1.77-2.71A7.49,7.49,0,0,0,42.45,9a11.39,11.39,0,0,0-3.71-.71c-1.63-.07-2.15-.09-6.3-.09m0,2.75c4.08,0,4.56,0,6.17.09a8.49,8.49,0,0,1,2.84.53,4.91,4.91,0,0,1,1.76,1.14,4.82,4.82,0,0,1,1.14,1.76,8.49,8.49,0,0,1,.53,2.84c.07,1.61.08,2.09.08,6.17s0,4.56-.08,6.17a8.49,8.49,0,0,1-.53,2.84,5,5,0,0,1-2.9,2.9,8.49,8.49,0,0,1-2.84.53C37,36,36.52,36,32.44,36s-4.57,0-6.18-.09a8.49,8.49,0,0,1-2.84-.53,4.66,4.66,0,0,1-1.75-1.14,4.72,4.72,0,0,1-1.15-1.76A8.84,8.84,0,0,1,20,29.67c-.08-1.61-.09-2.09-.09-6.17s0-4.56.09-6.17a8.84,8.84,0,0,1,.52-2.84,4.72,4.72,0,0,1,1.15-1.76,4.78,4.78,0,0,1,1.75-1.14,8.49,8.49,0,0,1,2.84-.53c1.61-.07,2.1-.09,6.18-.09" style="fill:#fff"></path><path d="M32.44,28.59a5.09,5.09,0,1,1,5.09-5.09,5.09,5.09,0,0,1-5.09,5.09m0-12.94a7.85,7.85,0,1,0,7.84,7.85,7.85,7.85,0,0,0-7.84-7.85" style="fill:#fff"></path><path d="M42.43,15.34a1.84,1.84,0,1,1-1.84-1.83,1.84,1.84,0,0,1,1.84,1.83" style="fill:#fff"></path></g></g></svg>