<svg version="1.1" id="Laag_1" xmlns="http://www.w3.org/2000/svg" xmlns:xlink="http://www.w3.org/1999/xlink" x="0px" y="0px" viewBox="56.900001525878906 74.30000305175781 453.1999816894531 49.80000305175781" style="enable-background:new 0 0 566.9 198.4;" xml:space="preserve">
<g>
	<g>
		<path d="M75.7,104.4l8.8,13.3c0.8,1.3,1.7,2.3,2.5,3c0.9,0.7,1.5,1.1,2.1,1.2c0.5,0.1,0.9,0.2,1.3,0.3c0.3,0.1,0.5,0.3,0.5,0.5
			c0,0.4-1.1,0.6-3.4,0.6c-1.7,0-3.1-0.5-4.3-1.4c-1.2-1-2.3-2.4-3.6-4.2l-5.8-9.2c-0.1-0.2-0.3-0.5-0.5-0.8c-0.6-1-1.1-1.5-1.6-1.7
			c-0.5-0.2-1.8-0.2-4-0.2c-0.4,0-0.6,0-0.8,0c-0.3,0-0.5,0-0.7,0.1c-0.2,0.1-0.3,0.1-0.4,0.2c-0.1,0.1-0.2,0.2-0.2,0.3
			c0,0.1-0.1,0.2-0.1,0.3c0,0.1,0,0.2,0,0.3c0,0.2,0,0.3,0,0.3v11.1c0,1,0.3,1.8,0.8,2.4c0.6,0.6,1.2,0.9,1.9,1
			c0.7,0.1,1.3,0.3,1.9,0.4c0.6,0.2,0.8,0.5,0.8,0.9c0,0.3-0.3,0.4-0.9,0.4c-0.1,0-0.3,0-0.7-0.1c-0.4,0-1.1-0.1-2-0.1
			c-0.9,0-2-0.1-3.3-0.1c-0.7,0-1.7,0-3,0.1c-1.3,0.1-2.3,0.1-3,0.1c-0.4,0-0.5-0.2-0.5-0.6c0-0.3,0.2-0.5,0.6-0.7
			c0.4-0.2,0.8-0.4,1.3-0.6c0.5-0.2,0.9-0.5,1.3-1.1c0.4-0.6,0.6-1.3,0.6-2.2V91.5c0-1.2-0.2-2-0.7-2.6c-0.5-0.6-1-0.9-1.5-1
			c-0.6-0.1-1.1-0.2-1.5-0.3c-0.5-0.1-0.7-0.4-0.7-0.8c0-0.4,0.4-0.6,1.1-0.6c0.2,0,0.5,0,1,0.1c0.5,0.1,1.3,0.1,2.3,0.1
			c1,0,2.6,0,4.5-0.1c2-0.1,3.4-0.1,4.3-0.1c0,0,0.1,0,0.2,0c0.3-0.1,0.8-0.1,1.5,0c0.7,0.1,1.5,0.2,2.4,0.2
			c0.9,0.1,1.9,0.3,2.8,0.7c1,0.4,1.9,1,2.6,1.6c0.8,0.6,1.4,1.5,2,2.6c0.5,1.2,0.8,2.5,0.8,4c0,2-0.6,3.8-1.9,5.5
			C79.2,102.4,77.6,103.6,75.7,104.4z M65.4,89.9v13.3c0,0.2,0.1,0.3,0.3,0.4c0.2,0.1,0.6,0.2,1,0.2c0.5,0,0.9,0.1,1.2,0.1
			c0.3,0,0.9,0,1.6,0c0.7,0,1.2,0,1.5,0c0.7,0,1.4-0.1,2.1-0.3c0.7-0.2,1.5-0.5,2.3-1c0.8-0.5,1.5-1.3,2-2.3
			c0.5-1.1,0.8-2.3,0.8-3.9c0-3-1-5.1-2.9-6.5c-1.9-1.4-4.3-2-7.2-2c-0.6,0-0.9,0-1.1,0c-0.2,0-0.4,0-0.8,0.1
			c-0.4,0.1-0.6,0.1-0.7,0.3c-0.1,0.1-0.2,0.3-0.3,0.6C65.4,89.2,65.4,89.5,65.4,89.9z"></path>
		<path d="M97.5,117.6V90.7c0-1.1-0.4-1.9-1.1-2.4c-0.7-0.5-1.4-0.8-2.1-0.9c-0.7-0.1-1.1-0.4-1.1-0.6c0-0.4,0.2-0.6,0.5-0.6
			c0.6,0,1.6,0,2.9,0.1c1.3,0.1,2.3,0.1,2.9,0.1c0.6,0,1.4,0,2.5-0.1c1.1-0.1,1.9-0.1,2.4-0.1c0.7,0,1,0.2,1,0.5
			c0,0.3-0.3,0.5-0.9,0.7c-0.6,0.1-1.3,0.4-1.9,0.9c-0.6,0.5-0.9,1.3-0.9,2.4v28.2c0,0.8,0.2,1.4,0.7,1.9c0.5,0.5,1,0.7,1.6,0.8
			c0.6,0.1,1.1,0.2,1.6,0.4c0.5,0.2,0.7,0.4,0.7,0.8s-0.4,0.5-1.1,0.5c-0.3,0-1.1,0-2.5-0.1c-1.3-0.1-2.4-0.1-3.3-0.1
			c-1.3,0-2.4,0-3.4,0.1c-1,0.1-1.6,0.1-1.6,0.1c-0.7,0-1.1-0.3-1.1-0.8c0-0.3,0.2-0.6,0.6-0.7c0.4-0.2,0.9-0.3,1.4-0.4
			c0.5-0.1,1-0.5,1.4-1.1C97.3,119.7,97.5,118.8,97.5,117.6z"></path>
		<path d="M125.9,120.9l-13-30.6c-0.4-0.9-0.9-1.6-1.6-1.9c-0.7-0.4-1.3-0.6-1.7-0.8c-0.5-0.1-0.7-0.3-0.7-0.6
			c0-0.5,0.2-0.7,0.7-0.7c0.6,0,1.4,0,2.4,0.1c1.1,0.1,1.9,0.1,2.4,0.1c0.5,0,1.3,0,2.3-0.1c1-0.1,1.6-0.1,1.8-0.1
			c0.5,0,0.7,0.2,0.7,0.5c0,0.1-0.1,0.3-0.3,0.4c-0.2,0.2-0.5,0.3-0.7,0.4c-0.3,0.1-0.5,0.4-0.8,0.7c-0.2,0.3-0.3,0.7-0.3,1.1
			c0,0.7,0.2,1.3,0.5,2l9.2,21.6c0.1,0.2,0.2,0.5,0.3,0.9c0.1,0.3,0.2,0.6,0.3,0.8c0.1,0.2,0.2,0.4,0.3,0.6c0.1,0.2,0.2,0.4,0.2,0.5
			c0.1,0.1,0.1,0.3,0.2,0.4c0.1,0.2,0.1,0.3,0.2,0.3c0.1,0.1,0.1,0.1,0.2,0.2c0.1,0.1,0.1,0.1,0.2,0.2c0.1,0,0.1,0.1,0.2,0.1
			c0.1,0,0.2,0,0.3-0.1c0.1-0.1,0.1-0.1,0.2-0.3c0.1-0.1,0.1-0.2,0.2-0.3c0.1-0.1,0.1-0.2,0.2-0.4c0.1-0.2,0.1-0.3,0.1-0.4l9.1-22.5
			c0.6-1.6,0.9-2.8,0.7-3.6c0-0.7-0.3-1.2-0.8-1.4c-0.6-0.3-1.1-0.4-1.7-0.6c-0.6-0.1-0.8-0.3-0.8-0.6c0-0.5,0.3-0.7,0.8-0.7
			c0.4,0,1,0,1.7,0.1c0.8,0.1,1.3,0.1,1.7,0.1c1,0,1.9,0,2.7-0.1c0.8-0.1,1.3-0.1,1.4-0.1c0.6,0,0.9,0.2,0.9,0.7
			c0,0.2-0.1,0.4-0.3,0.5c-0.2,0.1-0.4,0.2-0.7,0.3c-0.3,0.1-0.6,0.3-1,0.7c-0.4,0.4-0.7,1-1,1.8l-13.1,30.9
			c-0.1,0.2-0.2,0.6-0.5,1.3c-0.2,0.7-0.5,1.1-0.6,1.4c-0.2,0.3-0.4,0.4-0.6,0.4c-0.2,0-0.3-0.1-0.5-0.2c-0.1-0.1-0.3-0.4-0.4-0.6
			c-0.2-0.3-0.3-0.6-0.4-0.8c-0.1-0.3-0.2-0.6-0.3-0.9C126.1,121.3,126,121,125.9,120.9z"></path>
		<path d="M153.7,117.6V90.7c0-1.1-0.4-1.9-1.1-2.4c-0.7-0.5-1.4-0.8-2.1-0.9c-0.7-0.1-1.1-0.4-1.1-0.6c0-0.4,0.2-0.6,0.5-0.6
			c0.6,0,1.6,0,2.9,0.1c1.3,0.1,2.3,0.1,2.9,0.1c0.6,0,1.4,0,2.5-0.1c1.1-0.1,1.9-0.1,2.4-0.1c0.7,0,1,0.2,1,0.5
			c0,0.3-0.3,0.5-0.9,0.7c-0.6,0.1-1.3,0.4-1.9,0.9c-0.6,0.5-0.9,1.3-0.9,2.4v28.2c0,0.8,0.2,1.4,0.7,1.9c0.5,0.5,1,0.7,1.6,0.8
			c0.6,0.1,1.1,0.2,1.6,0.4c0.5,0.2,0.7,0.4,0.7,0.8s-0.4,0.5-1.1,0.5c-0.3,0-1.1,0-2.5-0.1c-1.3-0.1-2.4-0.1-3.3-0.1
			c-1.3,0-2.4,0-3.4,0.1c-1,0.1-1.6,0.1-1.6,0.1c-0.7,0-1.1-0.3-1.1-0.8c0-0.3,0.2-0.6,0.6-0.7c0.4-0.2,0.9-0.3,1.4-0.4
			c0.5-0.1,1-0.5,1.4-1.1C153.5,119.7,153.7,118.8,153.7,117.6z"></path>
		<path d="M176.2,91.7v9.8c0,0.9,0.1,1.4,0.2,1.6c0.2,0.1,0.7,0.2,1.8,0.2h5.7c1.2,0,2.2-0.2,2.9-0.7c0.7-0.4,1.2-0.9,1.3-1.4
			c0.1-0.5,0.3-1,0.4-1.4c0.2-0.4,0.4-0.7,0.6-0.7c0.4,0,0.6,0.3,0.6,1c0,0.6,0,1.5-0.1,2.7c0,1.2-0.1,2-0.1,2.6c0,0.5,0,1.1,0.1,2
			c0,0.9,0.1,1.6,0.1,2.1c0,0.5-0.2,0.7-0.6,0.7c-0.4,0-0.6-0.2-0.7-0.7c-0.1-0.5-0.2-1-0.3-1.6c-0.1-0.6-0.4-1.1-0.9-1.6
			c-0.5-0.5-1.3-0.7-2.3-0.7h-7.8c-0.1,0-0.3,0-0.4,0.1c-0.1,0-0.2,0.1-0.3,0.2c-0.1,0.1-0.1,0.1-0.2,0.2c0,0.1-0.1,0.1-0.1,0.3
			c0,0.1,0,0.2,0,0.3c0,0.1,0,0.2,0,0.4c0,0.2,0,0.3,0,0.3v9.7c0,0.2,0,0.5,0,0.9c0,0.4,0,0.7,0,0.8c0,0.1,0,0.3,0,0.7
			c0,0.3,0.1,0.5,0.1,0.6c0.1,0.1,0.1,0.2,0.2,0.4c0.1,0.2,0.2,0.4,0.3,0.4c0.1,0,0.3,0.1,0.5,0.2c0.2,0.1,0.4,0.2,0.7,0.2
			c0.3,0,0.6,0.1,0.9,0.1c0.3,0,0.7,0.1,1.2,0.1c2.3,0,4.3-0.2,6.1-0.6c1.8-0.4,3.2-0.8,4.1-1.3s1.8-1.1,2.4-1.6
			c0.6-0.5,1.1-1,1.4-1.4c0.3-0.4,0.5-0.6,0.6-0.6c0.3,0,0.4,0.2,0.4,0.6c0,1.5-0.9,3.2-2.6,5.1c-0.5,0.6-1.1,1-1.7,1.3
			c-0.6,0.3-1.1,0.4-1.4,0.4c-0.4,0-1.1,0.1-2.1,0.1c-1.1,0-2.9,0-5.7-0.1c-2.7-0.1-4.8-0.1-6.3-0.1c-0.5,0-1.4,0-2.9,0.1
			c-1.5,0.1-2.7,0.1-3.5,0.1c-0.5,0-0.8-0.2-0.8-0.5c0-0.1,0.1-0.3,0.2-0.4c0.1-0.1,0.2-0.2,0.3-0.2c0.1-0.1,0.4-0.1,0.7-0.3
			c0.4-0.1,0.7-0.3,1.1-0.5c0.6-0.3,1-0.8,1.2-1.4c0.2-0.7,0.3-1.7,0.3-3.1V93c0-0.8,0-1.4-0.1-1.8c0-0.4-0.1-0.9-0.3-1.5
			c-0.2-0.6-0.4-1-0.9-1.3c-0.4-0.3-1-0.5-1.6-0.6c0,0-0.1,0-0.3-0.1c-0.2,0-0.3-0.1-0.4-0.1c-0.1,0-0.2-0.1-0.4-0.1
			c-0.2-0.1-0.3-0.1-0.3-0.2c-0.1-0.1-0.1-0.2-0.1-0.3c0-0.4,0.6-0.6,1.8-0.6c4,0,7.4,0,10.3,0.1c2.9,0.1,4.4,0.1,4.5,0.1
			c0.3,0,1.5,0,3.5-0.1c2-0.1,3.4-0.1,4-0.1c0.4,0,0.5,0.4,0.5,1.2c0,4.2-0.4,6.2-1.1,6.2c-0.3,0-0.5-0.1-0.6-0.4
			c-0.1-0.3-0.2-0.6-0.2-1c0-0.4,0-0.8-0.1-1.3c-0.1-0.5-0.2-0.8-0.4-1.1c-0.2-0.2-0.4-0.5-0.8-0.6c-0.4-0.2-0.8-0.3-1.2-0.4
			c-0.5-0.1-0.9-0.2-1.4-0.3c-0.4-0.1-1-0.1-1.6-0.1c-0.6,0-1.1,0-1.5-0.1c-0.4,0-0.9,0-1.4,0c-0.6,0-0.9,0-1,0
			c-2.6,0-4,0.1-4.4,0.3C176.4,89,176.2,90,176.2,91.7z M183.3,83.1l-6.8-4.2c-0.1-0.1-0.3-0.2-0.8-0.5c-0.5-0.2-0.8-0.5-1-0.6
			c-0.2-0.2-0.5-0.4-0.7-0.7c-0.2-0.3-0.4-0.6-0.4-0.9c0-0.5,0.2-0.9,0.5-1.3c0.3-0.4,0.7-0.6,1.2-0.6c0.6,0,1.3,0.4,2.2,1.2
			l7.7,7.7H183.3z"></path>
		<path d="M218.1,104.4l8.8,13.3c0.8,1.3,1.7,2.3,2.5,3c0.9,0.7,1.5,1.1,2.1,1.2c0.5,0.1,0.9,0.2,1.3,0.3c0.3,0.1,0.5,0.3,0.5,0.5
			c0,0.4-1.1,0.6-3.4,0.6c-1.7,0-3.1-0.5-4.3-1.4c-1.2-1-2.3-2.4-3.6-4.2l-5.8-9.2c-0.1-0.2-0.3-0.5-0.5-0.8c-0.6-1-1.1-1.5-1.6-1.7
			c-0.5-0.2-1.8-0.2-4-0.2c-0.4,0-0.6,0-0.8,0c-0.3,0-0.5,0-0.7,0.1c-0.2,0.1-0.3,0.1-0.4,0.2c-0.1,0.1-0.2,0.2-0.2,0.3
			c0,0.1-0.1,0.2-0.1,0.3c0,0.1,0,0.2,0,0.3c0,0.2,0,0.3,0,0.3v11.1c0,1,0.3,1.8,0.8,2.4c0.6,0.6,1.2,0.9,1.9,1
			c0.7,0.1,1.3,0.3,1.9,0.4c0.6,0.2,0.8,0.5,0.8,0.9c0,0.3-0.3,0.4-0.9,0.4c-0.1,0-0.3,0-0.7-0.1c-0.4,0-1.1-0.1-2-0.1
			c-0.9,0-2-0.1-3.3-0.1c-0.7,0-1.7,0-3,0.1c-1.3,0.1-2.3,0.1-3,0.1c-0.4,0-0.5-0.2-0.5-0.6c0-0.3,0.2-0.5,0.6-0.7
			c0.4-0.2,0.8-0.4,1.3-0.6c0.5-0.2,0.9-0.5,1.3-1.1c0.4-0.6,0.6-1.3,0.6-2.2V91.5c0-1.2-0.2-2-0.7-2.6c-0.5-0.6-1-0.9-1.5-1
			c-0.6-0.1-1.1-0.2-1.5-0.3c-0.5-0.1-0.7-0.4-0.7-0.8c0-0.4,0.4-0.6,1.1-0.6c0.2,0,0.5,0,1,0.1c0.5,0.1,1.3,0.1,2.3,0.1
			c1,0,2.6,0,4.5-0.1c2-0.1,3.4-0.1,4.3-0.1c0,0,0.1,0,0.2,0c0.3-0.1,0.8-0.1,1.5,0c0.7,0.1,1.5,0.2,2.4,0.2
			c0.9,0.1,1.9,0.3,2.8,0.7c1,0.4,1.9,1,2.6,1.6c0.8,0.6,1.4,1.5,2,2.6c0.5,1.2,0.8,2.5,0.8,4c0,2-0.6,3.8-1.9,5.5
			C221.6,102.4,220,103.6,218.1,104.4z M207.8,89.9v13.3c0,0.2,0.1,0.3,0.3,0.4c0.2,0.1,0.6,0.2,1,0.2c0.5,0,0.9,0.1,1.2,0.1
			c0.3,0,0.9,0,1.6,0c0.7,0,1.2,0,1.5,0c0.7,0,1.4-0.1,2.1-0.3c0.7-0.2,1.5-0.5,2.3-1c0.8-0.5,1.5-1.3,2-2.3
			c0.5-1.1,0.8-2.3,0.8-3.9c0-3-1-5.1-2.9-6.5c-1.9-1.4-4.3-2-7.2-2c-0.6,0-0.9,0-1.1,0c-0.2,0-0.4,0-0.8,0.1
			c-0.4,0.1-0.6,0.1-0.7,0.3c-0.1,0.1-0.2,0.3-0.3,0.6C207.9,89.2,207.8,89.5,207.8,89.9z"></path>
		<g>
			<path d="M263,115.1l-1.7-4.3c-0.2-0.5-0.4-0.9-0.5-1.1c-0.1-0.2-0.3-0.4-0.7-0.6c-0.3-0.2-0.7-0.3-1.2-0.3h-11.5
				c-1.3,0-2.1,0.4-2.5,1.1l-3.4,7.3c-0.2,0.6-0.4,1.2-0.4,1.8c0,0.8,0.2,1.5,0.6,1.9c0.4,0.4,0.8,0.7,1.3,0.7
				c0.5,0.1,0.9,0.1,1.3,0.3c0.4,0.1,0.6,0.3,0.6,0.6c0,0.1,0,0.3-0.1,0.4c-0.1,0.1-0.1,0.2-0.1,0.2c0,0.1-0.1,0.1-0.2,0.1
				c-0.1,0-0.2,0.1-0.3,0.1c-0.1,0-0.2,0-0.4,0c-0.2,0-0.3,0-0.3,0c-0.5,0-1.2,0-2.2-0.1c-1-0.1-1.7-0.1-2.2-0.1
				c-0.5,0-1.2,0-2.1,0.1c-0.9,0.1-1.6,0.1-2.1,0.1c-0.3,0-0.5-0.2-0.5-0.6c0-0.3,0.2-0.5,0.7-0.6c0.4-0.1,1-0.4,1.6-0.7
				c0.6-0.4,1.2-1,1.5-1.9l12.5-26.8c0.5-1.1,1.1-2.4,1.8-3.9c0.7-1.6,1.2-2.6,1.4-3c0.2-0.4,0.4-0.6,0.7-0.6c0.1,0,0.2,0.1,0.3,0.2
				c0.1,0.1,0.2,0.2,0.3,0.4c0.1,0.2,0.2,0.3,0.2,0.5c0.1,0.2,0.1,0.3,0.2,0.5c0.1,0.2,0.1,0.3,0.1,0.3l10.9,27
				c0.1,0.3,0.3,0.9,0.7,1.8c0.4,0.9,0.7,1.7,1,2.4c0.3,0.6,0.6,1.2,1,1.8c0.5,0.7,1.1,1.2,1.9,1.4c0.8,0.2,1.4,0.4,2,0.5
				c0.5,0.1,0.8,0.3,0.8,0.7c0,0.3-0.2,0.5-0.7,0.5c-0.7,0-1.8,0-3.2-0.1c-1.4-0.1-2.5-0.1-3.3-0.1c-0.5,0-1.2,0-2.1,0.1
				c-0.9,0.1-1.7,0.1-2.2,0.1c-0.8,0-1.2-0.2-1.2-0.5c0-0.3,0.2-0.5,0.5-0.7c0.3-0.2,0.7-0.3,1.1-0.4c0.4-0.1,0.7-0.3,1.1-0.6
				c0.3-0.3,0.5-0.6,0.5-1.1c0-0.3-0.1-0.8-0.2-1.3c-0.2-0.5-0.4-1.3-0.8-2.2C263.2,115.7,263,115.2,263,115.1z M253,92.8l-5.9,12.8
				c-0.3,0.6-0.1,0.9,0.7,0.9h10.4c0.5,0,0.8-0.1,0.9-0.3c0.1-0.2,0.1-0.4-0.1-0.8l-5.1-12.6C253.6,92.2,253.4,92.2,253,92.8z"></path>
			<g>
				<path d="M332.7,92.5l0.7,26c0.1,1,0.3,1.7,0.8,2.3c0.4,0.5,0.9,0.8,1.4,0.9c0.5,0.1,1,0.2,1.4,0.3c0.4,0.2,0.6,0.5,0.6,0.8
					c0,0.4-0.4,0.5-1.3,0.5c-0.2,0-0.9,0-2-0.1c-1.1-0.1-2.1-0.1-2.9-0.1c-0.6,0-1.4,0-2.4,0.1c-1.1,0.1-1.8,0.1-2.2,0.1
					c-0.4,0-0.6-0.2-0.6-0.5c0-0.4,0.2-0.6,0.5-0.8c0.4-0.2,0.7-0.4,1.1-0.5c0.4-0.1,0.8-0.4,1.1-0.9c0.3-0.5,0.5-1.2,0.5-2.1
					l-0.5-20.4c0-1.4-0.2-2-0.6-2c-0.4,0-0.9,0.5-1.4,1.6l-10.9,22.1c0,0-0.1,0.3-0.4,0.8c-0.2,0.5-0.5,1-0.7,1.3
					c-0.2,0.3-0.4,0.5-0.6,0.5c-0.3,0-0.6-0.5-1.1-1.5l-11.2-23.4c-0.1-0.4-0.4-0.6-0.6-0.6c-0.2,0-0.3,0.3-0.4,0.8l-0.6,18.4
					c-0.1,1.6,0.1,2.8,0.6,3.7c0.5,0.9,1,1.4,1.7,1.5c0.6,0.1,1.2,0.3,1.7,0.5c0.5,0.2,0.8,0.5,0.8,0.9c0,0.4-0.4,0.6-1.3,0.6
					c-0.1,0-0.8,0-2-0.1c-1.2-0.1-2.1-0.1-2.6-0.1c-1.1,0-2,0-2.9,0.1c-0.9,0.1-1.5,0.1-1.6,0.1c-0.4,0-0.5-0.2-0.5-0.6
					c0-0.4,0.2-0.7,0.5-0.8c0.4-0.2,0.7-0.3,1.2-0.3c0.4-0.1,0.9-0.4,1.3-1.1c0.4-0.7,0.7-1.6,0.7-2.8c0.1-1.6,0.3-3.5,0.4-5.8
					c0.2-2.3,0.3-4.1,0.4-5.3c0.1-1.2,0.2-2.7,0.3-4.2c0.1-1.6,0.1-3,0.1-4.3c0-1.9-0.1-3.6-0.4-5c-0.2-1.4-0.6-2.4-0.9-3
					c-0.4-0.6-0.8-1.1-1.2-1.6c-0.4-0.4-0.8-0.6-1.2-0.7c-0.4-0.1-0.7-0.2-0.9-0.3c-0.2-0.2-0.4-0.4-0.4-0.6c0-0.4,0.3-0.6,0.9-0.6
					c0.3,0,0.8,0,1.4,0.1c0.6,0.1,1.1,0.1,1.5,0.1c0.3,0,0.8,0,1.4-0.1c0.6-0.1,1.1-0.1,1.4-0.1c0.2,0,0.3,0.1,0.4,0.2
					c0.1,0.1,0.2,0.2,0.3,0.3c0.1,0.1,0.1,0.3,0.2,0.5c0.1,0.2,0.1,0.4,0.2,0.4l12.5,26.7c0.6,1,0.9,1.6,1.2,1.6
					c0.2,0,0.7-0.9,1.6-2.8L329.8,88c0-0.1,0.1-0.2,0.2-0.5c0.1-0.3,0.2-0.5,0.3-0.6c0.1-0.2,0.2-0.3,0.4-0.4
					c0.2-0.1,0.3-0.2,0.4-0.2c0.2,0,0.7,0,1.3,0.1c0.7,0.1,1.1,0.1,1.1,0.1c0.4,0,0.9,0,1.4-0.1c0.5-0.1,0.9-0.1,1.1-0.1
					c0.3,0,0.5,0.2,0.5,0.6c0,0.4-0.2,0.6-0.7,0.7c-0.4,0.1-0.9,0.3-1.4,0.4c-0.5,0.1-1,0.5-1.4,1.3C332.9,90,332.7,91.1,332.7,92.5
					z"></path>
				<g>
					<path d="M368,115.1l-1.7-4.3c-0.2-0.5-0.4-0.9-0.5-1.1c-0.1-0.2-0.3-0.4-0.7-0.6c-0.3-0.2-0.7-0.3-1.2-0.3h-11.5
						c-1.3,0-2.1,0.4-2.5,1.1l-3.4,7.3c-0.2,0.6-0.4,1.2-0.4,1.8c0,0.8,0.2,1.5,0.6,1.9c0.4,0.4,0.8,0.7,1.3,0.7
						c0.5,0.1,0.9,0.1,1.3,0.3c0.4,0.1,0.6,0.3,0.6,0.6c0,0.1,0,0.3-0.1,0.4c-0.1,0.1-0.1,0.2-0.1,0.2c0,0.1-0.1,0.1-0.2,0.1
						c-0.1,0-0.2,0.1-0.3,0.1s-0.2,0-0.4,0c-0.2,0-0.3,0-0.3,0c-0.5,0-1.2,0-2.2-0.1c-1-0.1-1.7-0.1-2.2-0.1c-0.5,0-1.2,0-2.1,0.1
						c-0.9,0.1-1.6,0.1-2.1,0.1c-0.3,0-0.5-0.2-0.5-0.6c0-0.3,0.2-0.5,0.7-0.6c0.4-0.1,1-0.4,1.6-0.7c0.6-0.4,1.2-1,1.5-1.9
						l12.5-26.8c0.5-1.1,1.1-2.4,1.8-3.9c0.7-1.6,1.2-2.6,1.4-3c0.2-0.4,0.4-0.6,0.7-0.6c0.1,0,0.2,0.1,0.3,0.2
						c0.1,0.1,0.2,0.2,0.3,0.4c0.1,0.2,0.2,0.3,0.2,0.5c0.1,0.2,0.1,0.3,0.2,0.5c0.1,0.2,0.1,0.3,0.1,0.3l10.9,27
						c0.1,0.3,0.3,0.9,0.7,1.8c0.4,0.9,0.7,1.7,1,2.4c0.3,0.6,0.6,1.2,1,1.8c0.5,0.7,1.1,1.2,1.9,1.4c0.8,0.2,1.4,0.4,2,0.5
						c0.5,0.1,0.8,0.3,0.8,0.7c0,0.3-0.2,0.5-0.7,0.5c-0.7,0-1.8,0-3.2-0.1c-1.4-0.1-2.5-0.1-3.3-0.1c-0.5,0-1.2,0-2.1,0.1
						c-0.9,0.1-1.7,0.1-2.2,0.1c-0.8,0-1.2-0.2-1.2-0.5c0-0.3,0.2-0.5,0.5-0.7c0.3-0.2,0.7-0.3,1.1-0.4c0.4-0.1,0.7-0.3,1.1-0.6
						c0.3-0.3,0.5-0.6,0.5-1.1c0-0.3-0.1-0.8-0.2-1.3c-0.2-0.5-0.4-1.3-0.8-2.2C368.2,115.7,368,115.2,368,115.1z M358.1,92.8
						l-5.9,12.8c-0.3,0.6-0.1,0.9,0.7,0.9h10.4c0.5,0,0.8-0.1,0.9-0.3c0.1-0.2,0.1-0.4-0.1-0.8l-5.1-12.6
						C358.7,92.2,358.4,92.2,358.1,92.8z"></path>
					<path d="M387,117.6V90.7c0-1.1-0.4-1.9-1.1-2.4c-0.7-0.5-1.4-0.8-2.1-0.9c-0.7-0.1-1.1-0.4-1.1-0.6c0-0.4,0.2-0.6,0.5-0.6
						c0.6,0,1.6,0,2.9,0.1c1.3,0.1,2.3,0.1,2.9,0.1c0.6,0,1.4,0,2.5-0.1c1.1-0.1,1.9-0.1,2.4-0.1c0.7,0,1,0.2,1,0.5
						c0,0.3-0.3,0.5-0.9,0.7c-0.6,0.1-1.3,0.4-1.9,0.9c-0.6,0.5-0.9,1.3-0.9,2.4v28.2c0,0.8,0.2,1.4,0.7,1.9c0.5,0.5,1,0.7,1.6,0.8
						c0.6,0.1,1.1,0.2,1.6,0.4c0.5,0.2,0.7,0.4,0.7,0.8s-0.4,0.5-1.1,0.5c-0.3,0-1.1,0-2.5-0.1c-1.3-0.1-2.4-0.1-3.3-0.1
						c-1.3,0-2.4,0-3.4,0.1c-1,0.1-1.6,0.1-1.6,0.1c-0.7,0-1.1-0.3-1.1-0.8c0-0.3,0.2-0.6,0.6-0.7c0.4-0.2,0.9-0.3,1.4-0.4
						c0.5-0.1,1-0.5,1.4-1.1C386.8,119.7,387,118.8,387,117.6z"></path>
					<g>
						<path d="M402.8,120.8l-1.3-6.8c-0.2-1.1,0-1.6,0.6-1.6c0.1,0,0.2,0,0.3,0c0.1,0,0.1,0.1,0.2,0.1c0.1,0.1,0.1,0.1,0.2,0.2
							c0,0.1,0.1,0.1,0.1,0.3c0,0.1,0.1,0.2,0.1,0.3c0,0.1,0,0.2,0.1,0.4c0,0.2,0.1,0.3,0.1,0.4c0.2,0.7,0.5,1.5,1,2.3
							c0.5,0.8,1.2,1.7,2,2.5c0.8,0.9,2,1.6,3.4,2.2c1.4,0.6,3,0.9,4.6,0.9c2.7,0,5-0.7,7-2.2c1.9-1.5,2.9-3.5,2.9-6.1
							c0-1.4-0.4-2.5-1.2-3.5c-0.8-0.9-1.8-1.7-3-2.2c-1.2-0.5-2.6-1-4.1-1.4c-1.5-0.4-3-0.9-4.6-1.4c-1.5-0.5-2.9-1.1-4.1-1.8
							c-1.2-0.7-2.3-1.7-3-3.1c-0.8-1.3-1.2-2.9-1.2-4.8c0-3.1,1.1-5.6,3.4-7.3c2.3-1.7,5-2.6,8.3-2.6c1.9,0,3.5,0.2,4.8,0.5
							c1.3,0.3,2.3,0.6,2.9,0.9c0.6,0.3,1,0.5,1.1,0.5c0.1,0,0.3-0.1,0.5-0.3c0.2-0.2,0.4-0.3,0.6-0.3c0.4,0,0.6,0.2,0.6,0.7
							l0.8,7.1c0.1,0.5-0.1,0.8-0.6,0.8c-0.4,0-0.8-0.5-1.1-1.6c-0.8-2.2-2-3.9-3.8-5.1c-1.8-1.2-3.8-1.8-6.2-1.8
							c-2.3,0-4.3,0.6-6,1.7c-1.7,1.2-2.5,2.9-2.5,5.1c0,1.3,0.4,2.4,1.2,3.4c0.8,0.9,1.8,1.6,3,2.1c1.2,0.5,2.6,1,4.1,1.4
							c1.5,0.4,3,0.9,4.6,1.4c1.5,0.5,2.9,1.2,4.1,1.9c1.2,0.8,2.3,1.8,3,3.3c0.8,1.4,1.2,3.1,1.2,5.1c0,1.2-0.2,2.4-0.7,3.6
							c-0.5,1.2-1.2,2.4-2.3,3.5c-1.1,1.2-2.6,2.1-4.7,2.8c-2.1,0.7-4.5,1.1-7.3,1.1c-1.8,0-3.7-0.4-5.7-1.1
							C403.9,122,402.9,121.4,402.8,120.8z"></path>
						<path d="M450.4,123.7c-5.6,0-10.1-1.8-13.4-5.4c-3.3-3.6-5-8.2-5-13.8c0-5.4,1.9-9.9,5.6-13.5c3.7-3.6,8.3-5.4,13.7-5.4
							c5.4,0,9.9,1.7,13.5,5.2c3.6,3.5,5.4,7.9,5.4,13.3c0,5.9-1.8,10.6-5.5,14.1C461,122,456.2,123.7,450.4,123.7z M449.7,87.5
							c-4.2,0-7.6,1.5-10.1,4.5c-2.5,3-3.8,6.7-3.8,11c0,5.1,1.5,9.6,4.6,13.4c3.1,3.8,7.1,5.7,12.1,5.7c3.9,0,7.2-1.5,9.8-4.4
							c2.6-2.9,4-6.7,4-11.5c0-3.2-0.7-6.3-2-9.1c-1.3-2.9-3.3-5.2-5.9-7C455.9,88.4,453,87.5,449.7,87.5z"></path>
						<path d="M478.4,115.9V96.5c0-1.7-0.2-3.2-0.5-4.4c-0.3-1.2-0.7-2.1-1.2-2.6c-0.5-0.5-1-1-1.5-1.3c-0.5-0.3-1-0.5-1.5-0.6
							c-0.5-0.1-0.9-0.2-1.2-0.3c-0.3-0.2-0.5-0.4-0.5-0.7c0-0.4,0.3-0.5,0.8-0.5c0.3,0,0.7,0,1.2,0.1c0.5,0.1,1,0.1,1.2,0.1
							s0.7,0,1.2-0.1c0.5-0.1,0.9-0.1,1.2-0.1c0.1,0,0.3,0.1,0.4,0.2c0.1,0.1,0.3,0.2,0.3,0.3c0.1,0.1,0.2,0.2,0.3,0.4
							c0.1,0.2,0.2,0.3,0.3,0.3l25,27.9c0.3,0.4,0.5,0.6,0.6,0.6c0.1,0,0.2-0.2,0.2-0.6V93.3c0-1.6-0.3-2.8-0.9-3.7
							c-0.6-0.9-1.3-1.4-2-1.6c-0.7-0.2-1.4-0.4-2-0.6c-0.6-0.2-0.9-0.5-0.9-0.8s0.2-0.5,0.6-0.5c0.5,0,1.3,0,2.4,0.1
							c1.1,0.1,1.9,0.1,2.4,0.1c0.6,0,1.6,0,2.8-0.1c1.3-0.1,2.1-0.1,2.5-0.1c0.4,0,0.5,0.2,0.5,0.5c0,0.3-0.2,0.5-0.5,0.7
							c-0.3,0.2-0.7,0.4-1.1,0.5c-0.4,0.1-0.8,0.5-1.1,1c-0.3,0.5-0.5,1.2-0.5,2.1v30.4c0,1.5-0.2,2.3-0.5,2.3c-0.4,0-1.1-0.5-2-1.5
							l-22.6-25.4l-0.2-0.2c-0.1-0.1-0.2-0.2-0.3-0.3c-0.1-0.1-0.2-0.2-0.3-0.3c-0.1-0.1-0.2-0.2-0.3-0.2c-0.2,0-0.4,0.4-0.4,1.2
							v21.5c0,1.1,0.2,1.9,0.7,2.5c0.5,0.6,1,0.9,1.6,0.9c0.6,0.1,1.1,0.2,1.6,0.3c0.5,0.1,0.7,0.3,0.7,0.6c0,0.5-0.2,0.7-0.6,0.7
							c-0.3,0-1,0-2.2-0.1c-1.1-0.1-2.2-0.1-3.1-0.1c-0.7,0-1.7,0-3,0.1l-1.9,0.1c-0.5,0-0.7-0.2-0.7-0.6c0-0.3,0.2-0.5,0.5-0.7
							c0.3-0.1,0.7-0.3,1.2-0.4c0.5-0.1,0.9-0.4,1.4-0.7c0.5-0.3,0.8-0.9,1.2-1.8C478.2,118.4,478.4,117.3,478.4,115.9z"></path>
					</g>
				</g>
			</g>
		</g>
	</g>
</g>
</svg>