<svg xmlns="http://www.w3.org/2000/svg" width="151.9509" height="197.046" viewBox="0 0 151.9509 197.046"><g id="a3fdf8c9-4a92-4ebb-b50b-ed1c289519de" data-name="Layer 2"><g id="b90ca554-52b0-42ea-99e9-cb4acbb1c8d9" data-name="IW_DeHoop_iconen_verzameld_def&#xA0;Image"><rect width="151.9509" height="197.046" style="fill:none"></rect><g id="b4211e2e-9755-45a7-a3fd-a85bbe377eaf" data-name="Schep ijs"><path d="M35.8933,60.4941c-4.9757-.6873-7.853-3.8688-9.99-8.1236a31.98,31.98,0,0,1-3.367-11.3721,23.4777,23.4777,0,0,1,2.762-14.0513,27.5586,27.5586,0,0,1,6.01-7.6641c4.5083-3.843,9.553-6.6341,15.55-7.3577a34.4574,34.4574,0,0,1,9.36.1439,25.1352,25.1352,0,0,1,9.9178,3.5858A21.4373,21.4373,0,0,1,74.79,25.75a29.5914,29.5914,0,0,1,2.3691,13.6456,21.4633,21.4633,0,0,1-1.1621,4.2219c-1.4283,3.1152-4.1435,4.7036-7.1079,6.0031a17.8529,17.8529,0,0,0-4.2117,2.1579,5.37,5.37,0,0,0-2.4827,2.8841A8.6553,8.6553,0,0,0,60.8634,57.29a7.9277,7.9277,0,0,1-7.3081,4.8429,10.761,10.761,0,0,1-3.7469-.6092C45.2481,59.821,40.5844,60.0988,35.8933,60.4941Z" style="fill:#e3aea5"></path><path d="M64.6769,51.7783A17.8529,17.8529,0,0,1,68.8886,49.62c2.9644-1.2995,5.68-2.8879,7.1079-6.0031a8.2437,8.2437,0,0,1,5.4859,3.3076A2.1362,2.1362,0,0,0,80.1431,49.52a2.003,2.003,0,0,0,2.0015,1.5288c1.2178.0873,1.5237-.7458,1.7515-1.6759,1.7533,1.27,2.5672,3.1915,3.4558,5.0464a52.15,52.15,0,0,1,3.0419,8.0431,15.1338,15.1338,0,0,1,.4864,8.329,3.8852,3.8852,0,0,0-.0415.8364c-.0907.0772-.2254.1358-.2659.2335-1.44,3.4731-4.2952,5.4733-7.4831,7.0659-4.03,2.0135-7.3486,4.6547-9.3781,8.8526a10.8877,10.8877,0,0,1-4.6024,5.3567c-2.2267,1.1481-4.5038.8167-6.7851.4915a14.0278,14.0278,0,0,0-4.7543-.2787,22.3752,22.3752,0,0,1-8.4368.0517,41.5,41.5,0,0,1-8.7612-7.2824c-3.64-3.9681-5.8807-8.5167-5.9615-14.0459a37.2856,37.2856,0,0,1,.5138-7.908,27.4,27.4,0,0,0,.9692-3.6707c4.6911-.3948,9.3548-.6726,13.9151,1.03a10.761,10.761,0,0,0,3.7469.6092A7.9277,7.9277,0,0,0,60.8634,57.29a8.652,8.652,0,0,1,1.3308-2.6271,1.8873,1.8873,0,0,0,.7632,1.298,2.0959,2.0959,0,0,0,2.3532.1931A2.4352,2.4352,0,0,0,66.57,53.6354,2.1261,2.1261,0,0,0,64.6769,51.7783ZM79.6643,63.252c-.0529-1.6223-.8707-2.52-2.2684-2.4895a1.9966,1.9966,0,0,0-2.1517,2.185,2.3642,2.3642,0,0,0,2.5825,2.267A1.9227,1.9227,0,0,0,79.6643,63.252ZM67.3252,76.073A2.1683,2.1683,0,0,0,69.43,78.4664a2.2559,2.2559,0,0,0-.11-4.51A2.13,2.13,0,0,0,67.3252,76.073ZM54.47,74.3979a2.3193,2.3193,0,0,0,2.12-2.0636,2.3966,2.3966,0,0,0-2.1484-2.301,2.0584,2.0584,0,0,0-2.0567,2.046A2.203,2.203,0,0,0,54.47,74.3979Zm33.7986-1.5171a1.9558,1.9558,0,0,0-1.9895-2.1673,2.2722,2.2722,0,0,0-2.1738,2.2278,2.2388,2.2388,0,0,0,2.2505,2.0125A2.1211,2.1211,0,0,0,88.2682,72.8808ZM64.5909,91.2036A2.0369,2.0369,0,0,0,66.8794,89.3a2.1242,2.1242,0,0,0-1.98-2.14,2.1488,2.1488,0,0,0-2.29,2.09A1.9757,1.9757,0,0,0,64.5909,91.2036Zm-21.5015-24.38a2.3319,2.3319,0,0,0-2.2515-2.3307,2.2249,2.2249,0,0,0-1.8249,2.0682,2.4541,2.4541,0,0,0,2.0968,2.23A1.9744,1.9744,0,0,0,43.0894,66.8239Zm3.3259,19.8336a1.9035,1.9035,0,0,0,1.9631-1.8125,2.1155,2.1155,0,0,0-2.0792-1.9,1.8409,1.8409,0,0,0-1.93,1.557A2.0248,2.0248,0,0,0,46.4153,86.6575Z" style="fill:#fefefd"></path><path d="M49.133,93.4006a22.3752,22.3752,0,0,0,8.4368-.0517,14.0278,14.0278,0,0,1,4.7543.2787c2.2813.3252,4.5584.6566,6.7851-.4915a10.8877,10.8877,0,0,0,4.6024-5.3567c2.0295-4.1979,5.3476-6.8391,9.3781-8.8526,3.1879-1.5926,6.0435-3.5928,7.4831-7.0659.04-.0977.1752-.1563.2659-.2335a28.6938,28.6938,0,0,1,7.1965,4.3941,20.9528,20.9528,0,0,1,7.24,13.0464,21.5861,21.5861,0,0,1-.7377,9.4443,10.0252,10.0252,0,0,1-1.209,2.714c-.2264.1171-.2375.3157-.201.5323-1.179,1.4575-2.04,3.1226-3.0648,4.6806a12.2358,12.2358,0,0,0-1.7669,5.26q.0018.8331.0038,1.6665a1.0809,1.0809,0,0,0-.2416.8982,9.5535,9.5535,0,0,1-.7567,3.73,4.2437,4.2437,0,0,1-4.4359,3.1107,7.9133,7.9133,0,0,1-4.7164-1.8487,11.1589,11.1589,0,0,0-10.2049-2.6954q-.6258.0344-1.2515.0682-.2916.0759-.5834.1527a40.4349,40.4349,0,0,1-8.7977.9875c-5.6371-.4015-9.7876-3.3877-13.29-7.5632a20.8843,20.8843,0,0,1-3.244-4.987,21.7344,21.7344,0,0,1-1.7131-10.0242C49.0962,94.5971,49.1107,93.9986,49.133,93.4006Z" style="fill:#f7e18e"></path><path d="M114.1353,146.7986a16.8384,16.8384,0,0,0-1.0361,2.9911,1.1849,1.1849,0,0,0-.3572.8533l-.7818,2.3926q-.3348.9629-.6695,1.9257l-.052.2335-.1846.487-.0517.2342-.1721.4873q-.2858.8325-.5714,1.6652l-.1734.4917-.5275,1.1937-.6621,2.1667-.0456.2365-.1992.4833-.0472.2349-.4591,1.2017c-.1308,1.0577-.6213,1.4159-1.6637.9522a11.707,11.707,0,0,0-1.7171-.4806.8817.8817,0,0,0-.7246-.2068l-.4057-.0629a1.3152,1.3152,0,0,0-1.0349-.4084,4.0086,4.0086,0,0,1-2.6755-1.8033c-2.28-3.1749-4.643-6.29-6.99-9.4166-.8919-1.1878-1.7291-2.3648-.882-3.932l.17-.4891c1.0927-3.1952,2.2083-6.383,3.2629-9.5907.2833-.8616.5651-1.0837,1.5086-.7194,4.56,1.7609,9.16,3.4195,13.7422,5.1226a17.1812,17.1812,0,0,0,3.3874,1.1175l.4879.1735c.6781.7659-.2551,1.3074-.2752,1.976Z" style="fill:#d68250"></path><path d="M77.9442,116.5607a11.1589,11.1589,0,0,1,10.2049,2.6954,7.9133,7.9133,0,0,0,4.7164,1.8487,4.2437,4.2437,0,0,0,4.4359-3.1107,9.5535,9.5535,0,0,0,.7567-3.73,1.0809,1.0809,0,0,1,.2416-.8982c.9964.2831,1.9862.5939,2.9918.8409.8336.2048.4248.7181.294,1.11-1.098,3.2887-2.2489,6.56-3.3242,9.856q-1.5192,4.6569-2.9086,9.3557c-.26.878-.5248,1.1212-1.473.7359-4.0546-1.6474-8.1617-3.1654-12.222-4.7993-2.2505-.9056-4.4361-1.9714-6.6735-2.9115-.66-.2774-.8256-.5833-.56-1.2527.2767-.6976.4361-1.4417.6465-2.166a4.556,4.556,0,0,0,.6123-1.8185l.5016-1.4406a1.0267,1.0267,0,0,0,.2592-.7139l.2473-.4785a3.6287,3.6287,0,0,0,.6257-1.69Q77.63,117.2765,77.9442,116.5607Z" style="fill:#d68250"></path><path d="M106.4463,115.8114a2.1533,2.1533,0,0,1,1.4275,1.7263c.9986,3.5491,2.0766,7.0758,3.1135,10.6142,1.3045,4.4517,2.61,8.9033,3.8771,13.3657.1391.49.6131.87.4671,1.4444l-.7356-.19q-6.7927-2.4609-13.5849-4.9234c-1.2718-.4622-2.5232-.9842-3.8082-1.4051-.6731-.22-.765-.6051-.5716-1.1748,1.8007-5.3046,3.1835-10.7468,5.284-15.9539a32.87,32.87,0,0,0,.9731-3.19c.2487-.86.5073-1.6531,1.6715-1.013a1.5627,1.5627,0,0,0,.5906.0553A2.3983,2.3983,0,0,0,106.4463,115.8114Z" style="fill:#d68250"></path><path d="M107.5877,170.5464l.5451-1.67.4561-1.2042a.2126.2126,0,0,0,.05-.1615c.42-.2011.7546.2736,1.1654.1487a12.1137,12.1137,0,0,0,2.8752.9854,11.2463,11.2463,0,0,0,3.128,1.1413l2.1557.765,1.921.705c1.222.473,2.4379.9629,3.67,1.4085.349.1262.73.1989.8181.5974.4989,2.2432,1.4414,4.368,1.7692,6.6558a2.4442,2.4442,0,0,0-.4494,1.2q-.169.6678-.3381,1.3357a2.93,2.93,0,0,0-.6127,1.5447l-.054.2353-.4219,1.2051-.0745.23a.4791.4791,0,0,0-.1652.49q-.0579.3024-.1157.6051a1.1634,1.1634,0,0,0-.3448.836l-.3369,1.1875-.182.489-.0351.2375a1.7246,1.7246,0,0,0-.4062.9658c-.168.5247-.3929.63-.8.1682a99.3982,99.3982,0,0,1-7.3681-9.0494c-1.4252-2.0624-3.0932-3.9379-4.5044-5.9991a25.7265,25.7265,0,0,1-2.779-4.0885Z" style="fill:#d68250"></path><path d="M112.9163,167.2452l-.229-.0693-.4918-.1655-.23-.0686a1.8988,1.8988,0,0,0-.9707-.4017c-.5617-.3762-1.3354-.2512-1.8343-.7756a4.2958,4.2958,0,0,0,.63-1.9316q.17-.4669.3395-.9341a21.6071,21.6071,0,0,0,1.095-3.3859.2924.2924,0,0,0,.0474-.1791,5.7923,5.7923,0,0,0,.8853-2.2235l.0394-.2368.2191-.4815q.3835-1.195.7673-2.39a2.8613,2.8613,0,0,0,.4064-1.2119q1.2363-3.4119,2.4721-6.8231c.0763.0247.1529.0486.23.0726q2.1048,6.9474,4.2079,13.8954,1.6121,5.349,3.2,10.7043c-.2654.3354-.6178.15-.9379.1567A14.7237,14.7237,0,0,0,119.78,169.76a4.7456,4.7456,0,0,0-2.0622-.8521l-1.1329-.3053a1.1558,1.1558,0,0,0-1.0284-.4l-.23-.0658A10.1211,10.1211,0,0,0,112.9163,167.2452Z" style="fill:#d68250"></path><path d="M90.3709,148.9751q-6.618-8.6349-12.929-17.4966a7.1369,7.1369,0,0,1-1.2043-1.62l.086.0325.0363-.0845q7.993,3.463,16.1378,6.5525c1.9206.73,1.9133.7364,1.2825,2.644q-1.3662,4.1313-2.7211,8.2665Z" style="fill:#d68250"></path><path d="M126.324,183.9868q.1556-.4708.3109-.9416l.4553-.0353c.7126,3.1245,1.7247,6.1752,2.2874,9.337.1693.9519.4391,1.9413-.5261,2.6126-1.029.7158-1.9964.2093-2.86-.3887-.7145-.4947-1.3306-1.1291-2.0178-1.6666a.7485.7485,0,0,1-.2748-1.0147c.307-.7711.5343-1.5739.7951-2.3635q.0954-.2469.1911-.4938a10.3479,10.3479,0,0,0,.77-2.5273A10.7862,10.7862,0,0,0,126.324,183.9868Z" style="fill:#d68250"></path><path d="M98.2959,111.6993a12.2358,12.2358,0,0,1,1.7669-5.26c1.0247-1.558,1.8858-3.2231,3.0647-4.68.0628.06.1257.12.1885.1792a9.5771,9.5771,0,0,0,.7126,2.7172,3.9129,3.9129,0,0,1,.0138,3.5074,1.0014,1.0014,0,0,0-.1814.7263c-.4113,1.1207-.85,2.2326-1.222,3.3662-.172.5237-.3491.69-.9274.483C100.5925,112.3378,99.4365,112.04,98.2959,111.6993Z" style="fill:#d68250"></path><path d="M67.3116,117.7691a40.4253,40.4253,0,0,0,8.7971-.9875q-.2077.7233-.4142,1.4464a26.6581,26.6581,0,0,0-1.49,4.0706q-.07.2525-.14.5047l-1.0654,2.7785Z" style="fill:#d68250"></path><path d="M83.8961,49.3725c-.2278.93-.5337,1.7632-1.7515,1.6759A2.003,2.003,0,0,1,80.1431,49.52a2.1362,2.1362,0,0,1,1.3393-2.5947C82.9267,47.12,83.5152,47.7166,83.8961,49.3725Z" style="fill:#414140"></path><path d="M106.2411,169.598c-.1215.2062-.19.6542-.523.2143a32.3947,32.3947,0,0,1-2.9075-4.0291,1.9061,1.9061,0,0,0,.1329-.1368c1.0411.2668,2.08.5434,3.1239.7973.839.204,1.4074.5183.8018,1.4981a2.9431,2.9431,0,0,0-.22.6818A1.4738,1.4738,0,0,0,106.2411,169.598Z" style="fill:#d68250"></path><path d="M106.4347,114.2354c-.8124-.3157-1.9587-.4135-2.3459-1.0067-.4113-.63.5408-1.524.6856-2.3739.0844-.4955.0411-1.0566.667-1.4583.4519,1.6286.8923,3.2156,1.3324,4.8024Z" style="fill:#d68250"></path><path d="M111.2245,159.5129a21.6071,21.6071,0,0,1-1.095,3.3859A3.8289,3.8289,0,0,1,111.2245,159.5129Z" style="fill:#f6e6e3"></path><path d="M115.8073,169.786a11.2463,11.2463,0,0,1-3.128-1.1413A4.0314,4.0314,0,0,1,115.8073,169.786Z" style="fill:#f6e6e3"></path><path d="M112.9163,167.2452a10.1211,10.1211,0,0,1,2.4106.8914A2.3506,2.3506,0,0,1,112.9163,167.2452Z" style="fill:#f6e6e3"></path><path d="M126.324,183.9868a10.7862,10.7862,0,0,1-.8684,2.5181C125.3876,185.5425,125.3518,184.5909,126.324,183.9868Z" style="fill:#f6e6e3"></path><path d="M108.8959,161.9206l.6621-2.1667C110.0425,160.6916,109.4522,161.3009,108.8959,161.9206Z" style="fill:#f6e6e3"></path><path d="M112.1572,157.11a5.7923,5.7923,0,0,1-.8853,2.2235C111.3082,158.49,111.28,157.62,112.1572,157.11Z" style="fill:#f6e6e3"></path><path d="M119.884,171.256l-1.921-.705A1.4334,1.4334,0,0,1,119.884,171.256Z" style="fill:#f6e6e3"></path><path d="M90.3709,148.9751l.6882-1.7053A1.1864,1.1864,0,0,1,90.3709,148.9751Z" style="fill:#f6e6e3"></path><path d="M111.2907,154.9613q.3346-.9629.6695-1.9257A1.465,1.465,0,0,1,111.2907,154.9613Z" style="fill:#f6e6e3"></path><path d="M109.79,163.8329a4.2958,4.2958,0,0,1-.63,1.9316A1.66,1.66,0,0,1,109.79,163.8329Z" style="fill:#f6e6e3"></path><path d="M75.6945,118.228q.2069-.7231.4142-1.4464.2926-.0766.584-.1527C76.39,117.1808,76.446,117.9566,75.6945,118.228Z" style="fill:#f6e6e3"></path><path d="M117.7181,168.9074a4.7456,4.7456,0,0,1,2.0622.8521A2.1266,2.1266,0,0,1,117.7181,168.9074Z" style="fill:#f6e6e3"></path><path d="M77.3167,117.9925a3.6287,3.6287,0,0,1-.6257,1.6905A1.3774,1.3774,0,0,1,77.3167,117.9925Z" style="fill:#f6e6e3"></path><path d="M75.6829,122.316a4.556,4.556,0,0,1-.6123,1.8185C75.0267,123.4452,74.804,122.6953,75.6829,122.316Z" style="fill:#f6e6e3"></path><path d="M122.7616,170.7959c.32-.0072.6725.1787.9379-.1567.0352.2483.3359.64.1.7038A.7456.7456,0,0,1,122.7616,170.7959Z" style="fill:#f6e6e3"></path><path d="M124.7409,183.9977a2.93,2.93,0,0,1,.6127-1.5447C125.3954,183.0653,125.493,183.7,124.7409,183.9977Z" style="fill:#f6e6e3"></path><path d="M109.8041,167.6593c-.4108.1249-.745-.35-1.1654-.1487C108.9753,166.9068,109.2474,166.9415,109.8041,167.6593Z" style="fill:#f6e6e3"></path><path d="M113.5894,152.79a2.8613,2.8613,0,0,1-.4064,1.2119C112.72,153.3972,113.0569,153.0608,113.5894,152.79Z" style="fill:#f6e6e3"></path><path d="M124.265,185.4381l.4219-1.2051C125.1033,184.83,124.7866,185.17,124.265,185.4381Z" style="fill:#f6e6e3"></path><path d="M108.1448,164.077l.4591-1.2017C109.023,163.4943,108.71,163.8337,108.1448,164.077Z" style="fill:#f6e6e3"></path><path d="M125.6917,181.1173a2.4442,2.4442,0,0,1,.4494-1.2C126.53,180.5193,126.2282,180.8623,125.6917,181.1173Z" style="fill:#f6e6e3"></path><path d="M108.5889,167.6721l-.4561,1.2042C107.6923,168.2505,108.0291,167.9191,108.5889,167.6721Z" style="fill:#f6e6e3"></path><path d="M127.09,183.01l-.4553.0353c-.2873-.2448-.3872-.5618.0439-.6607C127.1337,182.28,127.0633,182.7219,127.09,183.01Z" style="fill:#f6e6e3"></path><path d="M106.4463,115.8114a2.3983,2.3983,0,0,1-1.2959-.6446C105.71,115.1248,106.24,115.1416,106.4463,115.8114Z" style="fill:#f6e6e3"></path><path d="M107.5877,170.5464l-.4345.9637C106.6974,170.9181,107.0613,170.6956,107.5877,170.5464Z" style="fill:#f6e6e3"></path><path d="M106.2411,169.598a1.4738,1.4738,0,0,1,.4081-.9744C107.0986,169.1935,106.6906,169.4044,106.2411,169.598Z" style="fill:#f6e6e3"></path><path d="M122.6046,190.4789a1.7246,1.7246,0,0,1,.4062-.9658C123.3405,190.0306,123.0117,190.2712,122.6046,190.4789Z" style="fill:#f6e6e3"></path><path d="M110.9948,166.54a1.8988,1.8988,0,0,1,.9707.4017C111.42,167.3447,111.1981,166.9644,110.9948,166.54Z" style="fill:#f6e6e3"></path><path d="M114.5959,142.7716l.7356.19c.1462.108.2361.3151.0415.3527A.6374.6374,0,0,1,114.5959,142.7716Z" style="fill:#f6e6e3"></path><path d="M115.5568,168.2024a1.1558,1.1558,0,0,1,1.0284.4C116.1962,168.5881,115.7166,168.8069,115.5568,168.2024Z" style="fill:#f6e6e3"></path><path d="M102.5988,163.8705a1.3152,1.3152,0,0,1,1.0349.4084C103.2394,164.2682,102.7526,164.4915,102.5988,163.8705Z" style="fill:#f6e6e3"></path><path d="M104.0394,164.3418a.8817.8817,0,0,1,.7246.2068C104.3973,164.9184,104.1613,164.83,104.0394,164.3418Z" style="fill:#f6e6e3"></path><path d="M76.4437,120.1615a1.0267,1.0267,0,0,1-.2592.7139C75.8346,120.4791,75.9585,120.2547,76.4437,120.1615Z" style="fill:#f6e6e3"></path><path d="M103.861,108.8894a1.0014,1.0014,0,0,1,.1814-.7263C104.3912,108.5073,104.3349,108.7505,103.861,108.8894Z" style="fill:#f6e6e3"></path><path d="M123.5648,187.5991a1.1634,1.1634,0,0,1,.3448-.836C123.9482,187.1048,124.0443,187.4705,123.5648,187.5991Z" style="fill:#f6e6e3"></path><path d="M112.742,150.643a1.1849,1.1849,0,0,1,.3572-.8533C113.1453,150.1429,113.2508,150.5214,112.742,150.643Z" style="fill:#f6e6e3"></path><path d="M111.0541,155.6818l.1846-.487C111.5907,155.5139,111.3478,155.6075,111.0541,155.6818Z" style="fill:#f6e6e3"></path><path d="M110.83,156.4033l.1721-.4873C111.3419,156.2186,111.1255,156.3248,110.83,156.4033Z" style="fill:#f6e6e3"></path><path d="M112.4157,156.392l-.2191.4815C111.856,156.5249,112.1222,156.4523,112.4157,156.392Z" style="fill:#f6e6e3"></path><path d="M92.2206,148.23l-.17.4891C91.7,148.4142,91.9215,148.3085,92.2206,148.23Z" style="fill:#f6e6e3"></path><path d="M110.0855,158.56l.1734-.4917C110.628,158.3829,110.4,158.4866,110.0855,158.56Z" style="fill:#f6e6e3"></path><path d="M114.1353,146.7986l.1991-.49C114.7159,146.6542,114.4485,146.7357,114.1353,146.7986Z" style="fill:#f6e6e3"></path><path d="M108.6511,162.64l.1992-.4833C109.1905,162.4858,108.9373,162.57,108.6511,162.64Z" style="fill:#f6e6e3"></path><path d="M74.0642,122.8033q.07-.2523.14-.5047C74.631,122.5982,74.4231,122.7217,74.0642,122.8033Z" style="fill:#f6e6e3"></path><path d="M114.61,144.333l-.4879-.1735C114.4272,143.8157,114.5317,144.0369,114.61,144.333Z" style="fill:#f6e6e3"></path><path d="M106.4347,114.2354l.3391-.0365c.1366.1486.1367.305-.0692.3446C106.511,114.5808,106.4661,114.3921,106.4347,114.2354Z" style="fill:#f6e6e3"></path><path d="M124.0253,186.158a.4791.4791,0,0,1,.1652-.49C124.5445,185.9691,124.3272,186.0778,124.0253,186.158Z" style="fill:#f6e6e3"></path><path d="M112.1955,167.01l.4918.1655C112.382,167.5408,112.2752,167.3159,112.1955,167.01Z" style="fill:#f6e6e3"></path><path d="M123.0459,189.2756l.182-.489C123.5967,189.1094,123.343,189.2006,123.0459,189.2756Z" style="fill:#f6e6e3"></path><path d="M124.6852,189.0322q-.0955.2469-.1911.4938C124.085,189.1785,124.3574,189.0946,124.6852,189.0322Z" style="fill:#f6e6e3"></path><path d="M103.316,101.9385c-.0628-.0595-.1257-.1189-.1885-.1792-.0364-.2174-.0253-.416.2011-.5331Z" style="fill:#f6e6e3"></path><path d="M116.2911,146.04c-.0767-.024-.1533-.0479-.23-.0726C116.1737,145.88,116.2417,145.9307,116.2911,146.04Z" style="fill:#f6e6e3"></path><path d="M76.2376,129.8588a.0978.0978,0,0,1,.1228-.0515l-.0368.084Z" style="fill:#f6e6e3"></path><path d="M102.8106,165.7832l-.12-.1432c.0838.0027.1677.0055.252.0073C102.9015,165.6942,102.8572,165.74,102.8106,165.7832Z" style="fill:#d68250"></path><path d="M64.6769,51.7783A2.1261,2.1261,0,0,1,66.57,53.6354a2.4352,2.4352,0,0,1-1.2592,2.5183,2.0959,2.0959,0,0,1-2.3532-.1931,1.8873,1.8873,0,0,1-.7632-1.298A5.37,5.37,0,0,1,64.6769,51.7783Z" style="fill:#414140"></path><path d="M79.6643,63.252a1.9227,1.9227,0,0,1-1.8376,1.9625,2.3642,2.3642,0,0,1-2.5825-2.267,1.9966,1.9966,0,0,1,2.1517-2.185C78.7936,60.7322,79.6114,61.63,79.6643,63.252Z" style="fill:#414140"></path><path d="M67.3252,76.073A2.13,2.13,0,0,1,69.32,73.9566a2.2559,2.2559,0,0,1,.11,4.51A2.1683,2.1683,0,0,1,67.3252,76.073Z" style="fill:#414140"></path><path d="M54.47,74.3979a2.203,2.203,0,0,1-2.0847-2.3186,2.0584,2.0584,0,0,1,2.0567-2.046,2.3966,2.3966,0,0,1,2.1484,2.301A2.3193,2.3193,0,0,1,54.47,74.3979Z" style="fill:#414140"></path><path d="M88.2682,72.8808a2.1211,2.1211,0,0,1-1.9128,2.073,2.2388,2.2388,0,0,1-2.2505-2.0125,2.2722,2.2722,0,0,1,2.1738-2.2278A1.9558,1.9558,0,0,1,88.2682,72.8808Z" style="fill:#414140"></path><path d="M64.5909,91.2036a1.9757,1.9757,0,0,1-1.982-1.9543,2.1488,2.1488,0,0,1,2.29-2.09,2.1242,2.1242,0,0,1,1.98,2.14A2.0369,2.0369,0,0,1,64.5909,91.2036Z" style="fill:#414140"></path><path d="M43.0894,66.8239a1.9744,1.9744,0,0,1-1.98,1.9676,2.4541,2.4541,0,0,1-2.0968-2.23,2.2249,2.2249,0,0,1,1.8249-2.0682A2.3319,2.3319,0,0,1,43.0894,66.8239Z" style="fill:#414140"></path><path d="M46.4153,86.6575a2.0248,2.0248,0,0,1-2.0461-2.1554,1.8409,1.8409,0,0,1,1.93-1.557,2.1155,2.1155,0,0,1,2.0792,1.9A1.9035,1.9035,0,0,1,46.4153,86.6575Z" style="fill:#414140"></path></g></g></g></svg>