<svg xmlns="http://www.w3.org/2000/svg" width="64.87" height="55" viewBox="0 0 64.87 55"><g id="Layer_2" data-name="Layer 2"><g id="Layer_1-2" data-name="Layer 1"><path d="M64.87,30.44h0C64.87,42.25,58.61,43,54.61,45a33.89,33.89,0,0,1-14,3c-6,0-4,7-12,7-11,0-8.66-6.33-22-9C1.61,45,0,35.47,0,30.44H0C0,12.52,14.52,0,32.44,0S64.87,12.52,64.87,30.44" style="fill:#f79b74"></path><path d="M47.79,18a12.52,12.52,0,0,1-3.62,1,6.33,6.33,0,0,0,2.77-3.49,12.35,12.35,0,0,1-4,1.53A6.3,6.3,0,0,0,32,21.32a6.17,6.17,0,0,0,.17,1.44,17.89,17.89,0,0,1-13-6.58,6.31,6.31,0,0,0,2,8.41,6.39,6.39,0,0,1-2.85-.79v.08a6.31,6.31,0,0,0,5.05,6.18,6.52,6.52,0,0,1-1.66.22,5.86,5.86,0,0,1-1.19-.12,6.31,6.31,0,0,0,5.89,4.38,12.68,12.68,0,0,1-9.33,2.61A17.9,17.9,0,0,0,26.74,40c11.59,0,17.92-9.6,17.92-17.93,0-.27,0-.54,0-.81A12.8,12.8,0,0,0,47.79,18Z" style="fill:#fff"></path></g></g></svg>